<svg xmlns="http://www.w3.org/2000/svg" xmlns:xlink="http://www.w3.org/1999/xlink" viewBox="0 0 3579.15 2741.55"><defs><style>.cls-1{fill:none;}.cls-2{isolation:isolate;}.cls-3{clip-path:url(#clip-path);}.cls-4,.cls-8{mix-blend-mode:color-dodge;}.cls-5{fill:#054569;}.cls-6,.cls-8{fill:#2ba8ff;}.cls-7{fill:#0092ff;}</style><clipPath id="clip-path" transform="translate(8.1 234.46)"><rect class="cls-1" width="3742.1" height="1870.87"/></clipPath></defs><title>Asset 17</title><g class="cls-2"><g id="Layer_2" data-name="Layer 2"><g id="Layer_3" data-name="Layer 3"><g class="cls-3"><g class="cls-4"><path class="cls-5" d="M464.93,996.3a12.44,12.44,0,1,0-4.22,2.64l107.78,171.7L400.17,1276.29,359.9,1325l-48.06,30.18-31.69-50.51L-8.1,1485.64l2.64,4.21,284-178.3,31.7,50.5,52.94-33.23,39.93-48.53,172.19-108.08Zm-14.89-5a7.46,7.46,0,1,1,12.13.64l-2.06-3.3a3.93,3.93,0,0,0-.34-3.44,4,4,0,1,0-6.83,4.29,4,4,0,0,0,3,1.8l2.06,3.3A7.45,7.45,0,0,1,450,991.28Z" transform="translate(8.1 234.46)"/><path class="cls-5" d="M1960.44,1028.44,1780.82,742.3l12.55-54.8L1516.78,246.89,1227.66,428.37l-12.87,56.28,24.49,39a12.43,12.43,0,1,0,4.2-2.63l-23.39-37.28,12-52.26,283.18-177.76,71.43,113.81-11.6,50.73L1370.56,546.62l172.26,274.44L1514.4,943.2a12.49,12.49,0,1,0,4.83,1.13l28.9-124.15-170.72-272,202-126.81,11-47.9,30,47.76-9,49.82-153.52,96.37-18,57.12L1568.3,829.28,1535.46,977a12.31,12.31,0,0,0-6.81,1.87,12.42,12.42,0,1,0,17.11,3.91,12.2,12.2,0,0,0-5.43-4.71l26.36-118.62,27.42,43.68L1573,1001.45a12.39,12.39,0,1,0,4.86,1l8.84-41.26,23.29,5.33L1591.86,1046,1340,1204l-12.65,55.33L1413,1395.8l471.27-294.94.88-.54,12-52.71,24,5.49,50.36,80.22-533.82,335.09-36.66-22.78-94.22-150.11-27.4-6.27-22.17-35.32-37.88,23.77,128.08,204,4.69,42.52L1468.77,1710l-7.17,27-215.9,135.52-28-6.39L1101.52,1681,1049,1668.56,922.45,1467l-4.21,2.64,113.48,180.78-47.5-10.87-42.59-67.84-24.2-5.53-18-28.72a4,4,0,0,0-.33-3.45,4,4,0,1,0-6.84,4.28,3.94,3.94,0,0,0,3,1.81l19.11,30.46,24.21,5.54,42.58,67.83,54.35,12.44,10.39,16.56,52.56,12.47,116.23,185.16,32,7.32,219.3-137.66,8.21-31L1357,1522.57l-4.69-42.51-11.09-17.68,13.83-52.73-41.67-66.37a4,4,0,1,0-7.17.84,4,4,0,0,0,3,1.8l40.52,64.56-12.1,46.13-17.25-27.49,6.4-27.18L1275.3,1320a4,4,0,0,0-.35-3.44,4,4,0,1,0-6.83,4.29,4,4,0,0,0,3,1.8l50.31,80.14-4.8,20.4-90.36-144,29.46-18.49,20.62,32.86,27.4,6.27,93.76,149.35,40.26,25,540.65-339.37-53-84.44,6.57-28.7-43.75-69.68.1-.36-.38-.09L1758.75,745.84a12.42,12.42,0,1,0-4.2,2.64l126.38,201.33-19.84-5.1-50.88-81-27.49-6.21L1749,803.68a12.4,12.4,0,1,0-4.19,2.64l34.85,55.54,27.49,6.2,50.83,81,26.83,6.9,29.92,47.67-48.06-12.5-52-82.79-57.42-13.14-23.68-37.7a12.4,12.4,0,1,0-4.19,2.64l24.75,39.45,57.42,13.13,51.93,82.72,55.07,14.3,8.12,12.92-5.78,25.29-49.38-11.29L1818.33,952l-82.62-18.9-19.48-31a3.9,3.9,0,0,0-.34-3.46,4,4,0,1,0-3.87,6.11l20.58,32.77,82.63,18.89,53.15,84.69,24,5.47-11.57,50.69L1414.58,1389l-68.86-109.7,17.76,4.06,33.5,53.37,56.39,12.89L1573.71,1274l6.36-27.83L1795.49,1111l46.57-4.75,6.93-30.33a12.4,12.4,0,1,0-6-22.9,12.42,12.42,0,0,0-3.93,17.12,12.27,12.27,0,0,0,5.12,4.54l-6.17,27-40.15,4.1,9.23-40.4a12.19,12.19,0,0,0,5.54-1.79,12.42,12.42,0,1,0-17.12-3.92,12.29,12.29,0,0,0,6.62,5.12l-9.66,42.25-43.71,27.43,2.11-9.21a12.48,12.48,0,1,0-4.84-1.11l-3.22,14.06-42.7,26.81,1.91-8.36a12.45,12.45,0,1,0-4.85-1.11l-3,13.21-118.47,74.36-6.37,27.84-78.74,49.42,11.09-48.5,117.76-73.91L1644.82,1087l124.06-77.88a12.45,12.45,0,1,0-2.63-4.21l-125.82,79-25.37,110.93-117.76,73.91-12.66,55.35-32.17,20.19-52.38-12-33.5-53.37-24.62-5.64-9.3-14.82,11.74-51.33,251.84-158.07L1616,962.81l-28.19-6.45,11.62-54.19L1590,887.24l46.26-29,25.06,5.73,51.43,81.93-5.62,24.57L1624,1022.6l-6.41,28-248.15,155.77a4,4,0,1,0,2.64,4.21L1622,1053.71l6.4-28,43.76-27.47-11.43,50-231.37,145.24a4,4,0,1,0,.84,7.17,4.05,4.05,0,0,0,1.81-3l128.37-80.58-4.52,19.76-63.72,40a3.93,3.93,0,0,0-3.46.33A4,4,0,0,0,1493,1184a3.94,3.94,0,0,0,1.8-3l65.47-41.1,6.09-26.61,98.8-62,13-56.81,33.42-21,6.54-28.58-53.61-85.41-29.07-6.66-48,30.15-19.15-30.52,5.37-24.15L1445.23,623.86l16.79-53.2,26-16.3-4.46,19.53a4,4,0,1,0,6.25.61,4.24,4.24,0,0,0-1-1.11l5.2-22.76,45-28.25-4.08,17.85c-.14.07-.29.08-.42.16a4,4,0,1,0,5.57,1.27c-.08-.13-.22-.2-.31-.32l5.19-22.69,44.76-28.09-4,17.49a1.44,1.44,0,0,0-.41.15,4,4,0,1,0,5.57,1.27c-.09-.12-.22-.2-.32-.32l5.11-22.33,20.27-12.72,8.44-46.62,26.42,42.1-11.5,50.3L1503,605.37l-7.2,31.5,97.73,155.7a12.4,12.4,0,1,0,4.23-2.6L1527.5,678l29.39,18.07,23.93,38.13a12.4,12.4,0,1,0,4.21-2.65l-24.55-39.1-38.94-24-15.75-25.08,69.78,39.51,19.15,30.51a3.92,3.92,0,0,0,.34,3.45,4,4,0,0,0,6.84-4.29,4,4,0,0,0-3-1.8l-19.82-31.56-77.81-44.08,6.09-26.69L1643.58,523l10.85-47.46,17.45,27.78-8.6,50.52-104.7,65.71,26.56,42.3a12.39,12.39,0,1,0,4.2-2.65l-23.9-38.08,102.36-64.26,8-47.22,67.3,107.23-20.55-4.71-3.55-5.64a12.4,12.4,0,1,0-4.2,2.64l4.64,7.4,27.4,6.27,28.44,45.32-22.28-7.46-2.62-4.2a12.44,12.44,0,1,0-4.22,2.64l3.58,5.7,29.72,9.95,8.55,13.63-12.53,54.79,179.62,286.16-6.28,27.4,292.52,462.88,4.2-2.65-291.4-461.13ZM1254.17,528.69a7.45,7.45,0,1,1-12.15-.64l2.08,3.3a4,4,0,0,0,.33,3.45,4,4,0,0,0,6.84-4.3,3.94,3.94,0,0,0-3-1.79l-2.06-3.3A7.46,7.46,0,0,1,1254.17,528.69Zm266.19,422.95a7.45,7.45,0,1,1-10.27-2.35,7.2,7.2,0,0,1,3.13-1.06l-.88,3.79c-.14.07-.28.07-.43.16a4,4,0,1,0,5.57,1.27c-.08-.12-.21-.19-.3-.31l.88-3.79A7.18,7.18,0,0,1,1520.36,951.64Zm223.5-210.83a7.45,7.45,0,0,1,12.63-7.92,7.37,7.37,0,0,1-.49,8.56l-2-3.29a4,4,0,0,0-.36-3.46,4,4,0,1,0-6.83,4.3,3.92,3.92,0,0,0,3,1.8l2.07,3.29A7.42,7.42,0,0,1,1743.86,740.81Zm-9.78,57.85a7.45,7.45,0,1,1,12.13.64l-2.06-3.29a3.89,3.89,0,0,0-3.32-5.27l-.48-.78-4.21,2.63.49.79a3.91,3.91,0,0,0,3.31,5.27l2.08,3.28A7.43,7.43,0,0,1,1734.08,798.66Zm-15.41,53.79a7.45,7.45,0,1,1,12.14.64l-2.07-3.29a3.94,3.94,0,0,0-.34-3.46,4,4,0,0,0-6.83,4.29,4,4,0,0,0,3,1.81l2.09,3.29A7.44,7.44,0,0,1,1718.67,852.45Zm124.61,215a7.45,7.45,0,1,1,10.27,2.35,7.24,7.24,0,0,1-3.42,1.08l1.65-7.2-4.83-1.11-1.61,7A7.6,7.6,0,0,1,1843.28,1067.47Zm-98.42,49.3a7.55,7.55,0,1,1,7.16,3.42l.87-3.8a4.09,4.09,0,0,0,.42-.16,4,4,0,1,0-5.57-1.28c.09.14.22.21.31.33l-.87,3.81A7.24,7.24,0,0,1,1744.86,1116.77ZM1696,1148.18a7.55,7.55,0,1,1,7.18,3.41l.87-3.79a3.89,3.89,0,0,0,.41-.16,4,4,0,1,0-5.56-1.27c.08.12.22.2.3.32l-.86,3.8A7.58,7.58,0,0,1,1696,1148.18ZM1799.73,1057a7.45,7.45,0,1,1,10.26,2.35,6.52,6.52,0,0,1-1.69.75l1.51-6.57-4.84-1.1-1.72,7.49A7.33,7.33,0,0,1,1799.73,1057Zm-25.81-62.75a7.45,7.45,0,1,1-.65,12.14l3.29-2.07a3.93,3.93,0,0,0,3.46-.34,4,4,0,0,0-4.29-6.83,3.88,3.88,0,0,0-1.8,3l-3.3,2.07A7.42,7.42,0,0,1,1773.92,994.24Zm-194.69,15.64a7.46,7.46,0,1,1-10.28-2.35,7.36,7.36,0,0,1,3-1.06l-1.47,6.86,4.86,1,1.47-6.84A7.43,7.43,0,0,1,1579.23,1009.88Zm-37.67-24.48a7.45,7.45,0,1,1-10.28-2.35,7.17,7.17,0,0,1,3.06-1l-.84,3.8a2.62,2.62,0,0,0-.39.15,4,4,0,1,0,5.55,1.26c-.07-.13-.21-.21-.32-.33l.86-3.81A7.49,7.49,0,0,1,1541.56,985.4Zm54.14-246.17a7.45,7.45,0,1,1-12.13-.65l2.07,3.3a4,4,0,0,0,.32,3.45,4,4,0,1,0,6.86-4.28,4,4,0,0,0-3-1.81l-2.06-3.3A7.44,7.44,0,0,1,1595.7,739.23Zm12.61,58.44a7.45,7.45,0,1,1-12-.74l3.75,6,4.21-2.65-3.69-5.89A7.43,7.43,0,0,1,1608.31,797.67ZM1600,666.85a7.45,7.45,0,1,1-12.13-.63l2.08,3.29a3.91,3.91,0,0,0,.34,3.45,4,4,0,1,0,3.87-6.09l-2.08-3.3A7.44,7.44,0,0,1,1600,666.85Zm104.16-65.37a7.46,7.46,0,1,1,12.13.65l-2.06-3.3a4,4,0,0,0-.34-3.45,4,4,0,0,0-6.84,4.28,4,4,0,0,0,3,1.82l2.06,3.29A7.44,7.44,0,0,1,1704.17,601.48Zm31.37,50a7.45,7.45,0,1,1,12.13.64l-2.07-3.29a3.91,3.91,0,0,0-.34-3.46,4,4,0,0,0-6.83,4.29,4,4,0,0,0,3,1.81l2.08,3.3A7.45,7.45,0,0,1,1735.54,651.45Z" transform="translate(8.1 234.46)"/><path class="cls-5" d="M1705.05,247.76l-54.81-12.54-72.09-114.85L1595,109.81l-13.21-21-33.66,21.13-7.93-12.63,50.5-31.7-13.21-21L1510.15,86.8l-7.92-12.62,50.49-31.7-13.2-21L1522.68,32l-39.61-63.12,32.44-20.37,17.45-81,52.38,12L1616-71.75l-9.59,41.93a12.3,12.3,0,0,0-6.9,1.9,12.44,12.44,0,0,0-3.92,17.12,12.43,12.43,0,0,0,17.12,3.91A12.42,12.42,0,0,0,1616.58-24a12.25,12.25,0,0,0-5.39-4.7l8.49-37.1,28,44.54-3.33,14.55a12.29,12.29,0,0,0-6.89,1.88,12.42,12.42,0,1,0,17.12,3.92,12.21,12.21,0,0,0-5.38-4.69l2.22-9.7,59.66,95-12.53,54.8,89.16,142a12.42,12.42,0,1,0,4.21-2.64l-88.07-140.3,12.53-54.81L1588.46-124.89,1534-137.34l20.69-96.07-4.86-1.05L1511.1-54.58l-65.57,41.16-82.2-18.8-85.9,53.91-12.54,54.8-149.75,94L1060.34,158,890.28,264.71l-3.79,16.55A12.4,12.4,0,0,0,874.58,298l-37.47,23.52a4,4,0,0,0-3.46.34,4.49,4.49,0,0,0-.39.36l-25.4-5.81L555,475.17l-31.57,3.07a12.4,12.4,0,1,0-5.21,14.22,12.35,12.35,0,0,0,5.7-9.28L556.65,480,808.76,321.75l23.49,5.37a2,2,0,0,0,.13.34,4,4,0,0,0,5.56,1.27,4,4,0,0,0,1.81-3l37.47-23.53a12.42,12.42,0,0,0,19.51-15.17,12.28,12.28,0,0,0-5.39-4.69l3.32-14.54,95.05-59.66-4.35,19A12.18,12.18,0,0,0,979,229a12.51,12.51,0,1,0,11.27-1l5.4-23.63,44.54-28-4.37,19.14a12.38,12.38,0,0,0-10.52,19,12.42,12.42,0,1,0,15.39-18l5.46-23.86,15.09-9.48,24,5.49-9.15,40.09a12.25,12.25,0,0,0-6.24,1.84,12.51,12.51,0,1,0,11.14-1l9.1-39.82,26,5.94,153.23-96.19,5.94-26L1316,63a12.25,12.25,0,0,0,1.87,6.71,12.44,12.44,0,1,0-.86-11.58l-40.66-9.3,5.49-24,82.42-51.73,82.19,18.8,32.44-20.36,42.26,67.33L1538,28.29l7.92,12.62-50.49,31.7,13.21,21,67.32-42.27L1583.84,64l-50.5,31.71,13.21,21,33.67-21.12,7.92,12.62L1571.3,118.8l75.83,120.8,54.8,12.54,40.4,64.35-21.27,13.34a12.39,12.39,0,1,0,2.66,4.21L1745,320.69l18.49,29.46-4.41,2.78a12.43,12.43,0,1,0,2.64,4.21l4.42-2.77L1784.71,384l-19,83.05,36.65,58.4a12.42,12.42,0,1,0,4.26-2.56L1771,466.15l17.42-76.2,7.33,11.68-12.37,55.05L1857,574l-3.58,15.71a12.41,12.41,0,1,0,10.22,5.8,12.6,12.6,0,0,0-5.38-4.7l2.47-10.87,17.32,27.57-11.61,56.28,75.22,119.82,79.76,18,52.13,83-6,26.41,43.88,69.9,27.35,6.27,48.54,77.31a4.05,4.05,0,1,0,4.22-2.63l-49.64-79.07-27.36-6.26-41.7-66.41,6-26.43-54.31-86.53-79.78-18-61.16-97.42,21.64,4.94,38.37,61.13a3.94,3.94,0,0,0,.35,3.46,4,4,0,1,0,6.82-4.29,4,4,0,0,0-3-1.8l-39.47-62.88-28.49-6.51-8.15-13,4.85-23.52,24.64,5.1,29,46.18a3.92,3.92,0,0,0,.33,3.45,4,4,0,1,0,6.84-4.3,4,4,0,0,0-3-1.8l-30.12-48-26.73-5.52,5.75-27.89L1788.7,455.78l10.81-48.18,82.81,131.91,30.59-19.19-4.12,18c-.12.07-.28.08-.41.16a4,4,0,1,0,5.56,1.27c-.09-.12-.21-.19-.31-.32l5.23-22.86,27.81-17.46-10.54,46.09c-.13.07-.29.08-.4.15a4,4,0,1,0,5.55,1.27c-.07-.12-.21-.19-.3-.31l11.66-50.93L1980.35,478,1970,524.11c-.14.08-.28.08-.41.17a4,4,0,1,0,5.57,1.27,3.34,3.34,0,0,0-.32-.33l11.5-51,7.55-4.73-2.66-4.21-107.3,67.35ZM1612.38-21.36A7.46,7.46,0,0,1,1610-11.09a7.47,7.47,0,0,1-10.28-2.36,7.45,7.45,0,0,1,2.36-10.27,7.34,7.34,0,0,1,3.09-1.05l-.88,3.79c-.12.06-.27.08-.41.16a4,4,0,0,0-1.26,5.56,4,4,0,0,0,5.56,1.27,4,4,0,0,0,1.27-5.56c-.08-.13-.22-.2-.31-.32l.88-3.8A7.54,7.54,0,0,1,1612.38-21.36Zm38,23.09a7.46,7.46,0,1,1-10.28-2.35,7.22,7.22,0,0,1,3.09-1.06l-.86,3.79c-.13.08-.29.08-.42.17a4,4,0,1,0,5.57,1.27c-.08-.14-.23-.2-.3-.32l.87-3.8A7.4,7.4,0,0,1,1650.35,1.73Zm152.21,279.89a7.45,7.45,0,1,1-12.13-.65l2.06,3.29a4,4,0,1,0,7.17-.83,4,4,0,0,0-3-1.8l-2.06-3.31A7.46,7.46,0,0,1,1802.56,281.62Zm-1287,206.63A7.45,7.45,0,1,1,518,478,7.48,7.48,0,0,1,515.59,488.25ZM882.25,287.36a7.33,7.33,0,0,1,3.09-1.07l-.86,3.8a3.61,3.61,0,0,0-.42.16,4,4,0,0,0-1.8,3l-3.3,2.07A7.44,7.44,0,0,1,882.25,287.36Zm10.27,2.34a7.44,7.44,0,0,1-10.91,9.79l3.29-2.07a4,4,0,0,0,3.46-.34,4,4,0,0,0,1.27-5.56c-.08-.13-.22-.21-.3-.33l.86-3.8A7.44,7.44,0,0,1,892.52,289.7Zm97-43.85a7.46,7.46,0,1,1,2.35-10.27A7.46,7.46,0,0,1,989.55,245.85Zm50.24-31.53a7.46,7.46,0,1,1,2.35-10.27A7.46,7.46,0,0,1,1039.79,214.32Zm42.94,2.92a7.54,7.54,0,1,1-7.85-3.31l-.94,4.18a4,4,0,0,0-.94,5.23,4,4,0,1,0,6.84-4.29,4.35,4.35,0,0,0-.83-.88l.82-3.57A7.34,7.34,0,0,1,1082.73,217.24ZM1324.4,56.74A7.51,7.51,0,1,1,1321,64.1l6.6,1.51,1.11-4.84L1322,59.24A7.56,7.56,0,0,1,1324.4,56.74Zm391.65,288a7.45,7.45,0,1,1,.64-12.13l-3.3,2.07a4,4,0,0,0-3.45.34,4,4,0,1,0,6.09,3.87l3.3-2.07A7.41,7.41,0,0,1,1716.05,344.71Zm38,23.11a7.46,7.46,0,1,1,.64-12.14l-3.29,2.07a4,4,0,0,0-3.47.34A4,4,0,1,0,1754,362l3.28-2.07A7.44,7.44,0,0,1,1754,367.82Zm63,162.8a7.45,7.45,0,1,1-12-.82l2,3.22a4,4,0,0,0,.22,3.7,4,4,0,1,0,6.84-4.28,4,4,0,0,0-2.68-1.8l-2.11-3.37A7.47,7.47,0,0,1,1817.07,530.62Zm42.38,67.52a7.46,7.46,0,1,1-10.28-2.35,7.34,7.34,0,0,1,3.12-1.06l-.88,3.81c-.14.07-.28.07-.41.15a4,4,0,1,0,5.55,1.27c-.07-.14-.21-.2-.3-.32l.87-3.79A7.07,7.07,0,0,1,1859.45,598.14Z" transform="translate(8.1 234.46)"/><path class="cls-5" d="M650.11,438.93,565.57,492l-39.18,3.81a4,4,0,0,0-6.69,4.44,4.05,4.05,0,0,0,5.57,1.29,4.42,4.42,0,0,0,.73-.7l41.21-4L651,444.24l52.79,12.08,32.47,51.73L905.82,401.61l25.39,5.81,42.26,67.32,56.81,13,422.55-265.23,13-56.81L1371.84,16a4,4,0,0,0-.34-3.45,4,4,0,1,0-3.87,6.1l18.93,30.16-3.32,14.55a12.28,12.28,0,0,0-6.9,1.88,12.47,12.47,0,1,0,11.74-.77l2.21-9.7,28,44.54-3.33,14.54a12.46,12.46,0,1,0,4.84,1.11l2.22-9.69,17.4,27.7-12.07,52.79-65.59,41.18-82.2-18.81L1043.88,356l-25.39-5.8-51.1-81.41a12.42,12.42,0,1,0-4.2,2.64l52.18,83.16,29.41,6.72,235.66-147.93,82.19,18.81,69.07-43.37,11.42-50,17.4,27.72-12.07,52.79L1029.38,482.44l-52.79-12.07L934.33,403l-29.41-6.72L737.83,501.19l-30.92-49.26ZM1389.26,71.76A7.45,7.45,0,1,1,1379,69.41a7.35,7.35,0,0,1,3.1-1.06l-1.55,6.81,4.84,1.11,1.56-6.82A7.23,7.23,0,0,1,1389.26,71.76Zm31.7,50.5a7.45,7.45,0,1,1-10.28-2.35,7.08,7.08,0,0,1,3.11-1.06l-1.57,6.81,4.84,1.11,1.56-6.82A7.26,7.26,0,0,1,1421,122.26ZM952.51,263.79a7.45,7.45,0,1,1,10.27,2.34A7.47,7.47,0,0,1,952.51,263.79Z" transform="translate(8.1 234.46)"/><polygon class="cls-5" points="77.26 1843.19 413.04 1632.42 437.87 1638.09 644.41 1508.44 609.85 1453.4 590.91 1465.28 537.54 1453.08 419.89 1526.92 379.21 1577.39 42.91 1788.49 45.56 1792.68 382.21 1581.37 422.89 1530.91 538.44 1458.38 591.82 1470.59 608.29 1460.24 637.56 1506.88 436.97 1632.8 412.13 1627.12 362.97 1657.97 354.6 1644.65 350.42 1647.28 358.78 1660.61 338.57 1673.29 330.2 1659.96 326.02 1662.59 334.38 1675.92 314.18 1688.6 305.81 1675.27 301.61 1677.91 309.99 1691.23 289.77 1703.92 281.4 1690.59 277.23 1693.22 285.59 1706.55 265.38 1719.23 257.01 1705.9 252.82 1708.54 261.19 1721.87 240.98 1734.55 232.61 1721.22 228.43 1723.84 236.79 1737.17 216.59 1749.86 208.21 1736.53 204.03 1739.17 212.39 1752.49 192.18 1765.18 183.82 1751.85 179.63 1754.47 188 1767.8 167.78 1780.49 159.42 1767.16 155.23 1769.79 163.6 1783.12 143.38 1795.81 135.02 1782.48 130.83 1785.11 139.2 1798.44 118.99 1811.13 110.62 1797.8 106.43 1800.42 114.8 1813.76 94.59 1826.44 86.22 1813.11 82.03 1815.74 90.4 1829.07 74.62 1838.98 77.26 1843.19"/><path class="cls-5" d="M1481.68,908.69l19-11.9,13.19-55.63L1314.42,523.49,1527,390.05a4,4,0,0,0,3.46-.35,4,4,0,1,0-4.29-6.83,4,4,0,0,0-1.81,3l-216.8,136.1L1508.52,842l-12.25,51.64-13,8.17L1273.5,567.69,1285.1,517l266.25-167.12a4,4,0,0,0,3.46-.34,4,4,0,1,0-4.3-6.84,3.91,3.91,0,0,0-1.8,3l-268,168.22L1268.2,568.6Z" transform="translate(8.1 234.46)"/><path class="cls-5" d="M2.12,1502l2.65,4.21L272,1338.43l18.82,30a4,4,0,0,0,.33,3.46,4,4,0,1,0,3.87-6.11l-21.46-34.18Z" transform="translate(8.1 234.46)"/><polygon class="cls-5" points="1515.29 537.51 1523.9 551.22 1528.07 548.59 1519.47 534.88 1515.29 537.51"/><polygon class="cls-5" points="1490.88 552.83 1499.48 566.53 1503.68 563.89 1495.07 550.2 1490.88 552.83"/><rect class="cls-5" x="1462.31" y="331.13" width="4.94" height="16.18" transform="matrix(0.85, -0.53, 0.53, 0.85, 51.68, 1064.41)"/><polygon class="cls-5" points="1442.09 583.46 1450.69 597.16 1454.88 594.53 1446.28 580.82 1442.09 583.46"/><polygon class="cls-5" points="1417.69 598.77 1426.3 612.48 1430.48 609.85 1421.88 596.14 1417.69 598.77"/><polygon class="cls-5" points="1393.29 614.09 1401.9 627.78 1406.09 625.16 1397.48 611.45 1393.29 614.09"/><rect class="cls-5" x="1364.71" y="392.39" width="4.94" height="16.19" transform="matrix(0.85, -0.53, 0.53, 0.85, 4.28, 1022.13)"/><polygon class="cls-5" points="1344.5 644.71 1353.1 658.42 1357.29 655.79 1348.69 642.09 1344.5 644.71"/><polygon class="cls-5" points="1320.1 660.03 1328.7 673.74 1332.89 671.11 1324.29 657.4 1320.1 660.03"/><polygon class="cls-5" points="1295.71 675.34 1304.3 689.05 1308.49 686.42 1299.89 672.72 1295.71 675.34"/><rect class="cls-5" x="1267.13" y="453.65" width="4.94" height="16.18" transform="translate(-43.1 980.06) rotate(-32.12)"/><rect class="cls-5" x="1242.73" y="468.96" width="4.94" height="16.18" transform="translate(-54.84 970.09) rotate(-32.14)"/><path class="cls-5" d="M418.46,1457l219.11-137.54a4,4,0,0,0,3.45-.33,4,4,0,0,0-4.3-6.84,4,4,0,0,0-1.8,3L417.56,1451.68l-25.75-5.89L87,1637.14l2.64,4.2,303.09-190.25Z" transform="translate(8.1 234.46)"/><path class="cls-5" d="M1337,1513.43l-3.24-25.1-116-185.27-28.4-6.49L1161,1314.32a12.42,12.42,0,1,0,2.64,4.21l26.54-16.66,24.37,5.57,114.28,182.08,2.77,21.4-225,141.24-23.11-5.28-59.61-95,18.56,4.24,42.13,67.53,28.27,6.47L1298,1513.94a4,4,0,1,0-2.65-4.21L1112,1624.86l-24.24-5.55-27-43.22,19.34,4.42,10.81,17.23,27.35,6.24L1253,1519.37a3.94,3.94,0,0,0,3.46-.33,4,4,0,0,0-4.29-6.83,3.88,3.88,0,0,0-1.8,3l-133.06,83.52-23.33-5.34-10.81-17.21-26.17-6-11.46-18.37-25.4-5.81-30.73-49,6-26.27-15.84-25.24a12.43,12.43,0,1,0-4.21,2.64l14.75,23.49-5.22,22.86-12.75-2.93a12.63,12.63,0,1,0-1.18,4.82l14.24,3.27,39.26,62.54-19.8-4.53c-.06-.1-.06-.23-.13-.33a4,4,0,1,0-1.27,5.56,3.32,3.32,0,0,0,.38-.37l24.55,5.62,16.78,26.73-18.36-4.2a2.48,2.48,0,0,0-.15-.41,4,4,0,1,0-1.27,5.56c.13-.08.2-.23.32-.31l23.19,5.31,16.3,26-18.06-4.12c-.08-.15-.09-.3-.17-.44a4,4,0,1,0-1.27,5.58c.12-.09.21-.22.32-.31l22.92,5.24,11.62,18.52,26.1,6h0l53,12.59-12.25,55.55,41.89,10.49-8.88,42.24,54.89,10.7,15,23.91a12.41,12.41,0,1,0,4.21-2.65l-14.25-22.7,29.71-18.66,3,4.83a12.43,12.43,0,1,0,4.21-2.64l-3-4.82,29.19-18.34,12.94,20.61a12.42,12.42,0,1,0,4.2-2.64l-12.93-20.6,29.9-18.77,3,4.82a12.42,12.42,0,1,0,4.21-2.64l-3-4.82,12.71-8a4,4,0,1,0-2.64-4.21l-115.43,72.44-50-9.75,7.79-37.14,40.17,10.07,125.28-78.65a12.4,12.4,0,1,0-2.68-4.18l-123.45,77.5-80.13-20.07,11.19-50.75,81,19.24,24.24-15.22a12.43,12.43,0,1,0-2.64-4.21l-22.48,14.1-131.08-31.11,27.76-17.43,110.47,26.47,42.13-26.44a12.42,12.42,0,1,0-2.65-4.22l-40.36,25.35-103.71-24.85,28-17.59,83.46,21.41,60-37.68a12.42,12.42,0,1,0-2.64-4.21l-58.21,36.55-76.85-19.71,44.47-27.92,52.2,11.94a3.52,3.52,0,0,0,.15.42,4,4,0,1,0,1.28-5.57c-.14.08-.21.22-.32.3l-47.35-10.82,28.76-18.06,22.86,5.23c.07.14.09.28.17.42a4,4,0,1,0,1.27-5.57c-.13.08-.21.22-.33.31l-18-4.12ZM1156,1329.2a7.45,7.45,0,1,1,.64-12.13l-2.5,1.57,1.31,2.1,1.33,2.1,2.5-1.57A7.44,7.44,0,0,1,1156,1329.2ZM964.71,1440.48a7.45,7.45,0,1,1,12.14.65l-2.07-3.3a3.92,3.92,0,0,0-.34-3.45,4,4,0,1,0-6.83,4.29,3.92,3.92,0,0,0,3,1.8l2.08,3.3A7.45,7.45,0,0,1,964.71,1440.48Zm-1,57a7.46,7.46,0,1,1,2.35-10.28,7.32,7.32,0,0,1,1.07,3.23l-3.76-.85a4.3,4.3,0,0,0-.2-.57,4,4,0,1,0-1.28,5.57,1,1,0,0,0,.21-.2l3.86.88A7.56,7.56,0,0,1,963.72,1497.47Zm324,281.08a7.45,7.45,0,1,1-12.14-.64l3.47,5.52,4.21-2.64-3.47-5.53A7.48,7.48,0,0,1,1287.76,1778.55Zm43.31-5.18a7.46,7.46,0,1,1-12.14-.65l4.12,6.57,4.21-2.63-4.12-6.58A7.43,7.43,0,0,1,1331.07,1773.37Zm24.19-37.19a7.45,7.45,0,1,1-12.14-.65l3.47,5.52,4.21-2.64-3.46-5.52A7.44,7.44,0,0,1,1355.26,1736.18ZM1265,1817.73a7.45,7.45,0,1,1-12.12-.64l2.81,4.47,4.21-2.63-2.82-4.5A7.45,7.45,0,0,1,1265,1817.73Zm99.32-164.21a7.46,7.46,0,1,1-.56,12.21l8-5-2.64-4.21-8.05,5A7.47,7.47,0,0,1,1364.36,1653.52Zm-89.73,6.58a7.46,7.46,0,1,1-.63,12.14l3.29-2.07a4,4,0,0,0,3.45-.34,4,4,0,1,0-6.1-3.87l-3.29,2.07A7.46,7.46,0,0,1,1274.63,1660.1Zm24.15-38.63a7.45,7.45,0,1,1-.63,12.15l3.28-2.07a4,4,0,1,0-2.63-4.21l-3.3,2.07A7.48,7.48,0,0,1,1298.78,1621.47Zm24.82-37.56A7.45,7.45,0,1,1,1323,1596l3.29-2.07a4,4,0,0,0,3.46-.33,4,4,0,0,0-4.29-6.84,3.93,3.93,0,0,0-1.81,3l-3.3,2.08A7.43,7.43,0,0,1,1323.6,1583.91Z" transform="translate(8.1 234.46)"/><path class="cls-5" d="M722.29,1408.64l-29.06-46.29-198,124.29,15.32-37.58,22-13.8a12.42,12.42,0,1,0-2.64-4.21l-23.34,14.65L488,1491.17l-77.46,48.62,15.82-37.9,22-13.79a12.46,12.46,0,1,0-2.63-4.22l-23.33,14.64-19.13,45.84-30.74,19.3-71.59,313L688.64,2494.3a27.32,27.32,0,1,0,46.28-29.05L359.25,1866.77l61.5-268.85Zm-184.75,11.74a7.45,7.45,0,1,1-.64,12.13l3.29-2.06a4,4,0,1,0-.84-7.18,4,4,0,0,0-1.79,3l-3.3,2.06A7.44,7.44,0,0,1,537.54,1420.38Zm-84.16,52.82a7.46,7.46,0,1,1-.64,12.14l3.29-2.07a4,4,0,1,0-.83-7.17,4,4,0,0,0-1.81,3l-3.29,2.07A7.46,7.46,0,0,1,453.38,1473.2ZM354,1867.67l376.76,600.22a22.36,22.36,0,0,1-37.88,23.78L306.23,1875.75l70.66-309L691.67,1369.2l23.77,37.87L416.36,1594.8Z" transform="translate(8.1 234.46)"/><path class="cls-5" d="M266.09,1881.09l68-297.11,1.87-1.18-1.17-1.87,18.68-81.72,34.24-21.49,26,6L663.81,1327a4,4,0,1,0-1.09-7.29,4,4,0,0,0-1.82,3.24L412.81,1478.37l-26-5.95-37.73,23.68-6.33,27.68L312.16,1543,285,1536.29l-145.11,91.08a12.44,12.44,0,1,0,2.64,4.22l143.32-90,20.43,5-31.83,20-9.35,30.63-45.5,28.55-22.36,66.34a12.31,12.31,0,0,0-8.12,1.74,12.42,12.42,0,1,0,17.12,3.93,12.26,12.26,0,0,0-4.3-4.09l21.8-64.64,39.15-24.58-46.74,153.1a12.57,12.57,0,1,0,4.76,1.45l57.76-189.21,62.46-39.22-11.49,50.24-33.19,20.83-23.42,79.07a12.15,12.15,0,0,0-7.66,1.81,12.56,12.56,0,1,0,12.42-.4l22.9-77.27,27.38-17.19L260.79,1882l64.15,102.2,40,23.3,310.7,495,4.21-2.64-311.35-496-40-23.29ZM134.88,1642.27a7.45,7.45,0,1,1,.64-12.14l-3.28,2.06a4,4,0,1,0,.83,7.18,4,4,0,0,0,1.8-3l3.29-2.06A7.44,7.44,0,0,1,134.88,1642.27Zm67.18,58.17a7.51,7.51,0,1,1-6.43-3.47l-1.25,3.72a3.22,3.22,0,0,0-.78.3,4,4,0,1,0,5.56,1.27.16.16,0,0,0,0-.06l1.23-3.64A7.57,7.57,0,0,1,202.06,1700.44Zm19.27,65.5a7.46,7.46,0,1,1-10.28-2.35,7.39,7.39,0,0,1,3.62-1.08l-1.13,3.73a3.52,3.52,0,0,0-.68.26,4,4,0,1,0,5.57,1.26,1.54,1.54,0,0,1-.12-.13l1.12-3.69A7.26,7.26,0,0,1,221.33,1765.94Zm57-76.82a7.56,7.56,0,1,1-6.71-3.44l-1.11,3.74a4.8,4.8,0,0,0-.63.24,4,4,0,1,0,5.56,1.27s-.1-.09-.14-.15l1.09-3.72A7.35,7.35,0,0,1,278.3,1689.12Z" transform="translate(8.1 234.46)"/><path class="cls-5" d="M1399.73,719.26a12.42,12.42,0,1,0,17.12,3.91A12.43,12.43,0,0,0,1399.73,719.26Zm10.57,16.83a7.45,7.45,0,1,1,2.35-10.27A7.46,7.46,0,0,1,1410.3,736.09Z" transform="translate(8.1 234.46)"/><path class="cls-5" d="M1447.28,795a12.42,12.42,0,1,0,17.12,3.92A12.42,12.42,0,0,0,1447.28,795Zm10.56,16.83a7.45,7.45,0,1,1,2.35-10.27A7.45,7.45,0,0,1,1457.84,811.83Z" transform="translate(8.1 234.46)"/><path class="cls-5" d="M1415.58,744.51a12.42,12.42,0,1,0,17.13,3.91A12.39,12.39,0,0,0,1415.58,744.51Zm10.56,16.82a7.45,7.45,0,1,1,2.35-10.27A7.44,7.44,0,0,1,1426.14,761.33Z" transform="translate(8.1 234.46)"/><path class="cls-5" d="M1431.42,769.75a12.42,12.42,0,1,0,17.13,3.91A12.45,12.45,0,0,0,1431.42,769.75ZM1442,786.59a7.45,7.45,0,1,1,2.35-10.28A7.47,7.47,0,0,1,1442,786.59Z" transform="translate(8.1 234.46)"/><path class="cls-5" d="M1404.05,1422.35l39.68,24.07,461.68-289.8a12.44,12.44,0,1,0-2.63-4.2l-421,264.25,10.34-45.23,167.61-105.21,26.71,6.11,176.19-110.6a12.46,12.46,0,1,0-3.28-3.79L1685.54,1267l-26.71-6.12-171.09,107.41-11.89,52.07-32.16,20.18-36.07-21.86L1303.29,1252.5l4.35-15.49a12.17,12.17,0,0,0,7.48-1.82,12.41,12.41,0,1,0-17.11-3.92,12.24,12.24,0,0,0,4.85,4.4l-4.95,17.61Zm462.12-276.78a7.45,7.45,0,1,1,1.21,13.2l5.08-3.18-2.64-4.21-6.26,3.92A7.41,7.41,0,0,1,1866.17,1145.57Zm44.27-3.83a7.45,7.45,0,1,1-.65,12.14l6.55-4.12-2.65-4.2-6.55,4.1A7.45,7.45,0,0,1,1910.44,1141.74Zm-608.23,86.89a7.45,7.45,0,1,1,10.28,2.35,7.39,7.39,0,0,1-3.46,1.09l1-3.76a4.19,4.19,0,0,0,.59-.22,4,4,0,1,0-5.57-1.28c.06.09.14.13.19.2l-1.06,3.76A7.52,7.52,0,0,1,1302.21,1228.63Z" transform="translate(8.1 234.46)"/><path class="cls-5" d="M1240.48,1498.22l-113.61,71.33-102.3-163a3.94,3.94,0,0,0-.34-3.46,4,4,0,0,0-6.83,4.29,3.91,3.91,0,0,0,3,1.8l37,59-19.78-4.53-29.41-46.83a4,4,0,0,0-.33-3.47,4,4,0,0,0-6.84,4.3,4,4,0,0,0,3,1.81l30.5,48.58,26.63,6.1,29.28,46.65-48.77-11.16L990.4,1428a3.93,3.93,0,0,0-.34-3.44,4,4,0,1,0-6.84,4.28,4,4,0,0,0,3,1.81l52.33,83.37,55.63,12.72,31.15,49.63,122-76.6L1162.69,1365l5.81-25.39,31.78-20,103.27,164.53,4.21-2.64-105.91-168.74-37.73,23.68-6.73,29.41Z" transform="translate(8.1 234.46)"/><path class="cls-5" d="M430.23,1892.44l309.39,492.87,26-113.58-1.93-.8a247.15,247.15,0,0,1-114.47-97.15c-72.89-116.1-37.72-269.87,78.4-342.76A248,248,0,0,1,860.92,1793h2L890,1674.67,774.32,1490.45l-85.76-19.62-221,138.75-48.5,212a4,4,0,1,0,4.74,1.58h0l48.14-210.5,217.56-136.56,81.73,18.69,113.46,180.74-17.37,75.92L850.69,1725l2.22-13.39a12.28,12.28,0,0,0,6.12-1.84,12.52,12.52,0,1,0-11,1l-2.52,15.24,20.25,32.26L859,1788a253,253,0,0,0-134,38.85c-118.43,74.33-154.3,231.18-80,349.61a252.1,252.1,0,0,0,114.84,98.27l-22.38,97.82L437.08,1894l407.26-255.64-75.83-120.81-85-19.44L493,1617.72,449.71,1807c-.12.07-.28.08-.41.16a4,4,0,1,0,5.57,1.27,3.31,3.31,0,0,0-.32-.33l42.86-187.29,187-117.4L765.39,1522l72.1,114.85Zm415.89-189.19a7.45,7.45,0,1,1,10.27,2.35,7.73,7.73,0,0,1-2.65,1l.63-3.83c.07,0,.14,0,.21-.08a4,4,0,1,0-5.57-1.28,4.42,4.42,0,0,0,.47.5l-.64,3.84A7.17,7.17,0,0,1,846.12,1703.25Z" transform="translate(8.1 234.46)"/><path class="cls-5" d="M765.29,1751.91a4,4,0,0,0,3.68-.24,4,4,0,1,0-4.3-6.84,4,4,0,0,0-1.79,2.72L530.66,1893.32l-17.09,74.73a12.25,12.25,0,0,0-7.24,1.87,12.42,12.42,0,1,0,17.12,3.91,12.26,12.26,0,0,0-5.07-4.51l16.67-72.89Zm-246,224.56a7.6,7.6,0,1,1-6.8-3.43l-.85,3.66a4.26,4.26,0,0,0-.81.32,4,4,0,1,0,5.57,1.26h0l.9-3.91A7.51,7.51,0,0,1,519.24,1976.47Z" transform="translate(8.1 234.46)"/><path class="cls-5" d="M1157,1412.75a12.42,12.42,0,1,0-5.82,18.07l16.13,25.7,28.37,6.48,8.81,14-5.84,25.5-64.59,40.55-66.2-105.46a12.42,12.42,0,1,0-4.21,2.64L1132.53,1550l70.55-44.29,6.75-29.52L1137,1360.08a4,4,0,0,0-.33-3.46,4,4,0,0,0-6.84,4.3,4,4,0,0,0,3,1.8l59.21,94.34-21.51-4.92-15.13-24.09A12.41,12.41,0,0,0,1157,1412.75Zm-104,19.86a7.45,7.45,0,1,1,12.13.64l-2.07-3.28a4,4,0,0,0-.33-3.46,4,4,0,1,0-6.84,4.29,4,4,0,0,0,3,1.81l2.07,3.29A7.42,7.42,0,0,1,1053,1432.61Zm87.19-9.3a7.45,7.45,0,1,1,12.38.35l-2.14-3.4a4,4,0,0,0-.52-3,4,4,0,1,0-3.42,6.11l2,3.18A7.42,7.42,0,0,1,1140.21,1423.31Z" transform="translate(8.1 234.46)"/><path class="cls-5" d="M1107,1444.19a12.42,12.42,0,1,0-6.17,18.24l37.71,60.23,33.65-21.13a4,4,0,0,0,3.45-.34,4,4,0,1,0-4.29-6.84,4,4,0,0,0-1.8,3l-29.44,18.47-35.07-56A12.44,12.44,0,0,0,1107,1444.19Zm-16.84,10.57a7.46,7.46,0,1,1,12.14.64l-2.08-3.29a3.9,3.9,0,0,0-.33-3.46,4,4,0,1,0-6.83,4.29,4,4,0,0,0,3,1.81L1098,1458A7.45,7.45,0,0,1,1090.11,1454.76Z" transform="translate(8.1 234.46)"/><path class="cls-5" d="M2265.1,1219.31a12.4,12.4,0,0,0,1.47,21.82l-8.76,38.31-28-44.63,6.13-26.8L2203,1155.56l5.53-24.12c.13-.07.28-.08.41-.16a4,4,0,1,0-5.57-1.27c.09.13.22.2.31.32l-4.4,19.28-20.35-32.41a12.43,12.43,0,1,0-4.2,2.64l55.9,89.08-6.12,26.79,52.87,84.24-3.72,23.11-24.39-5.58-51.72-82.42,12.2-53.36L2182,1157.55a12.35,12.35,0,1,0-4.06,2.87l26.48,42.19-10.63,46.5-62-98.72-17.53,11-7.49-11.92,33.67-21.13-12.88-20.52-50.5,31.71-7.6-12.1,66.63-41.83-13.41-21.39-85.58,53.71-7.81-12.45,103.09-64.72-12.88-20.51-84.16,52.83-9.15-14.6,67.32-42.26L2080.87,996l-52.6,33-8.34-13.32,35.75-22.45-12.94-20.62-16.83,10.57L1935,838.39l47.82,10.93L2010.89,894a4,4,0,0,0,.27,3.59,4,4,0,1,0,6.84-4.29,4,4,0,0,0-2.82-1.8l-29.24-46.6-54.67-12.5L1901,784.19l6.26-27.39-64.49-102.74L1788,641.53,1694.74,493l16.84-10.58L1465.92,91.09l-21,13.21,74,117.83L1201.47,421.34l-60.67,14.77-100.86,63.16-80.18-18.34-43-68.56L629.34,592.76l-14.55-3.32a12.31,12.31,0,0,0-1.88-6.89A12.42,12.42,0,1,0,609,599.66a12.3,12.3,0,0,0,4.68-5.38l16.56,3.78L915.15,419.22l41.49,66.09,17,3.9L965,526.87,762.59,654a4,4,0,0,0-3.46.34,4,4,0,1,0,6.1,3.87L969.41,530l9.08-39.68,17.83,4.08-8.62,37.67L721.89,698.92a4,4,0,0,0-3.46.34,4,4,0,1,0,4.29,6.82,3.9,3.9,0,0,0,1.81-3l267.56-168,9.07-39.68,39.68,9.07,101.53-63.72L1203,426.08l322.65-202.39-74-117.82L1464.36,98l240.36,382.93-16.83,10.56,97,154.47,54.79,12.54,62.3,99.24-6.26,27.41,32.36,51.56,0,.13.12,0,96.19,153.22,16.83-10.56,7.66,12.2-35.76,22.45,13.64,21.73,52.6-33,7.4,11.79-67.34,42.26,14.45,23,84.16-52.83,7.6,12.1-103.09,64.71,13.09,20.88,85.57-53.71,8.14,13-66.63,41.82,12.87,20.52,50.5-31.71,7.6,12.1L2100,1147.91l12.78,20.34,17.52-11,38.43,61.23-19.23-4.41c-.08-.13-.09-.29-.17-.42a4,4,0,1,0-1.27,5.57c.13-.09.21-.21.33-.31l24.08,5.52,73.73,117.45,52.52,12,17.83,28.42-44.15-10.09a3.94,3.94,0,0,0-.55-1.75,4,4,0,1,0-2.68,6.1l51.11,11.69,17.72,28.22-74.8-16.38-62.37-99.34-29.85-6.82-21-33.45.07-.33-.32-.07L2125.77,1222a12.43,12.43,0,1,0-4.21,2.64l21.28,33.9-18.94-4.32a1.67,1.67,0,0,0-.16-.41,4,4,0,1,0-1.28,5.55c.14-.07.22-.21.33-.3l23.79,5.44,21.25,33.84,29.85,6.83,37.29,59.41-48.19-11a1.35,1.35,0,0,0-.16-.42,4,4,0,1,0-1.27,5.56,2.35,2.35,0,0,0,.33-.3l53,12.12,21.34,34,54.46,11.91-5.38,21-107.93-23.92-220.14-350.72,12.75-55.32-42.46-67.63,6.55-28.64-83.44-133,6.11-26.72-44-70.1-16.85-3.85a12.34,12.34,0,1,0-1,4.86l14.75,3.37,41.82,66.62-6.12,26.72,83.46,132.95-6.54,28.64,42.43,67.62-12.77,55.32L2198.1,1418l114.66,25.42,6.6-25.88,22.31,4.88,15.44,24.61,4.21-2.64L2323.45,1384l0-.11-.13,0-21.56-34.38-23.29-5.32,4.08-25.28-21.13-33.65.12,0,9.84-43a12.24,12.24,0,0,0,6.89-1.89,12.42,12.42,0,0,0-13.2-21ZM2164,1112.17a7.45,7.45,0,1,1,12.14.65l-2.06-3.3a4,4,0,0,0-5.91-4.72,4,4,0,0,0-1.27,5.57,4,4,0,0,0,3,1.79l2.08,3.31A7.47,7.47,0,0,1,2164,1112.17Zm2.69,40.84a7.45,7.45,0,1,1,12.52.12l-2.26-3.61a3.87,3.87,0,0,0-.53-2.61,4,4,0,1,0-3.15,6.12l2,3.11A7.44,7.44,0,0,1,2166.72,1153ZM606.34,595.46a7.45,7.45,0,1,1,2.36-10.28,7.17,7.17,0,0,1,1.06,3.1l-3.79-.87c-.07-.13-.09-.28-.16-.41a4,4,0,1,0-1.28,5.56c.14-.08.21-.21.33-.3l3.8.86A7.2,7.2,0,0,1,606.34,595.46Zm1504.54,621.48a7.45,7.45,0,1,1,12.14.64l-2.07-3.29a4,4,0,0,0-.34-3.46,4,4,0,1,0-6.82,4.3,3.91,3.91,0,0,0,3,1.8l2.07,3.3A7.46,7.46,0,0,1,2110.88,1216.94Zm-299.6-533.1a7.45,7.45,0,1,1,2.35-10.27,7.87,7.87,0,0,1,1.07,2.89l-3.89-.88a1,1,0,0,0-.07-.2,4,4,0,1,0-1.27,5.56,5.11,5.11,0,0,0,.48-.45l3.74.85A7.37,7.37,0,0,1,1811.28,683.84Zm464.38,552.3a7.38,7.38,0,0,1-3.09,1.07l.86-3.8a3.47,3.47,0,0,0,.41-.16,4,4,0,1,0-5.56-1.27c.08.13.22.2.31.32l-.87,3.8a7.34,7.34,0,0,1-2.33-2.31,7.45,7.45,0,1,1,10.27,2.35Z" transform="translate(8.1 234.46)"/><path class="cls-5" d="M817.44,1676.39a4,4,0,1,0-6.1-3.87L477.56,1882l-4.89,21.4a12.26,12.26,0,0,0-6.89,1.89,12.43,12.43,0,1,0,11.73-.79l4.44-19.39,332-208.42A3.92,3.92,0,0,0,817.44,1676.39ZM478.69,1911.88a7.51,7.51,0,1,1-7.17-3.42l-.87,3.81a2.26,2.26,0,0,0-.41.15,4,4,0,1,0,5.56,1.27c-.08-.13-.21-.2-.3-.32l.87-3.79A7.17,7.17,0,0,1,478.69,1911.88Z" transform="translate(8.1 234.46)"/><path class="cls-5" d="M792.61,1715a4,4,0,0,0-4.29-6.84,4,4,0,0,0-1.81,3l-282.4,177.27-10.93,47.75a12.46,12.46,0,1,0,4.84,1.1l10.47-45.74,280.66-176.17A4,4,0,0,0,792.61,1715Zm-293.4,229.59a7.46,7.46,0,1,1-10.27-2.35,7.32,7.32,0,0,1,3.1-1.07l-.87,3.8c-.14.07-.29.08-.42.16a4,4,0,1,0,5.57,1.27c-.09-.12-.22-.19-.31-.32l.87-3.8A7.34,7.34,0,0,1,499.21,1944.56Z" transform="translate(8.1 234.46)"/><path class="cls-5" d="M431.62,1331.56a3.92,3.92,0,0,0,3.44-.33,4,4,0,1,0-4.28-6.84,4,4,0,0,0-1.8,3l-31.72,19.9-3.73,26.1-28.27-6.23L44.06,1568.75,46.7,1573l319.48-200.54,55.32,12.2,184.34-115.7a4,4,0,0,0,3.45-.34,4,4,0,1,0-6.1-3.87l-95.13,59.72,5.06-22.08,45.9-28.82a4,4,0,1,0-2.64-4.21l-47.65,29.91-6.62,28.93L457.72,1356l10.92-47.69,48.94-30.73a4,4,0,0,0,4.73-5.91,4.05,4.05,0,0,0-5.57-1.27,4,4,0,0,0-1.8,3l-44.53,27.95,4.5-17.46a5.38,5.38,0,0,0,.51-.2,4,4,0,1,0-5.57-1.27c.06.1.17.15.24.24l-5.81,22.53,0,0-12.48,54.55-31.18,19.57-22.18-4.89,3.45-24.2Z" transform="translate(8.1 234.46)"/><path class="cls-5" d="M1149.91,1319.47a4,4,0,1,0,5.56,1.27A4,4,0,0,0,1149.91,1319.47Z" transform="translate(8.1 234.46)"/></g><g class="cls-4"><polygon class="cls-6" points="835.24 1625.39 832.91 1621.74 1460.23 1221.03 2008.43 1403.26 2008.82 1407.89 1460.52 1225.97 835.24 1625.39"/></g><g class="cls-4"><polygon class="cls-6" points="579.59 1180.67 579 1175.95 1132.52 826.9 1134.82 830.55 579.59 1180.67"/></g><g class="cls-4"><polygon class="cls-7" points="579 1175.95 579.59 1180.67 179.15 1024.22 179.15 1020.01 579 1175.95"/></g><g class="cls-4"><path class="cls-6" d="M1139.39,601.53a16.8,16.8,0,1,1,16.8-16.79A16.81,16.81,0,0,1,1139.39,601.53Zm0-28.77a12,12,0,1,0,12,12A12,12,0,0,0,1139.39,572.76Z" transform="translate(8.1 234.46)"/></g><polygon class="cls-8" points="2008.82 1407.89 2008.43 1403.26 3242.5 921.85 3579.15 1141.56 3579.15 1145.98 3242.82 926.22 2008.82 1407.89"/></g></g></g></g></svg>