<?xml version="1.0" encoding="UTF-8" standalone="no"?>
<!-- Created with Inkscape (http://www.inkscape.org/) -->

<svg
   xmlns:dc="http://purl.org/dc/elements/1.1/"
   xmlns:cc="http://creativecommons.org/ns#"
   xmlns:rdf="http://www.w3.org/1999/02/22-rdf-syntax-ns#"
   xmlns:svg="http://www.w3.org/2000/svg"
   xmlns="http://www.w3.org/2000/svg"
   xmlns:sodipodi="http://sodipodi.sourceforge.net/DTD/sodipodi-0.dtd"
   xmlns:inkscape="http://www.inkscape.org/namespaces/inkscape"
   version="1.1"
   id="svg882"
   width="1440"
   height="1149"
   viewBox="0 0 1440 1149"
   sodipodi:docname="bg-top.svg"
   inkscape:version="0.92.4 (33fec40, 2019-01-16)">
  <metadata
     id="metadata888">
    <rdf:RDF>
      <cc:Work
         rdf:about="">
        <dc:format>image/svg+xml</dc:format>
        <dc:type
           rdf:resource="http://purl.org/dc/dcmitype/StillImage" />
        <dc:title />
      </cc:Work>
    </rdf:RDF>
  </metadata>
  <defs
     id="defs886" />
  <sodipodi:namedview
     pagecolor="#ffffff"
     bordercolor="#666666"
     borderopacity="1"
     objecttolerance="10"
     gridtolerance="10"
     guidetolerance="10"
     inkscape:pageopacity="0"
     inkscape:pageshadow="2"
     inkscape:window-width="1920"
     inkscape:window-height="1021"
     id="namedview884"
     showgrid="false"
     inkscape:zoom="0.6135696"
     inkscape:cx="683.88052"
     inkscape:cy="515.33489"
     inkscape:window-x="0"
     inkscape:window-y="0"
     inkscape:window-maximized="1"
     inkscape:current-layer="svg882" />
  <g
     id="g892">
    <path
       style="fill:#3331a9"
       d="M 1429.6561,1137.25 C 1343.0554,1033.7713 1230.1086,957.00664 1099.0761,912.57045 1043.5552,893.74202 1000.7172,883.94467 924,872.52935 831.7408,858.80143 761.96961,841.76128 702,818.31049 c -6.325,-2.47336 -21.4,-9.38253 -33.5,-15.35372 -35.23953,-17.39024 -53.67853,-30.03138 -75,-51.41741 -17.21801,-17.27014 -25.9338,-29.72595 -39.49346,-56.44046 -8.08465,-15.92793 -12.31183,-31.4729 -15.42643,-56.72891 -7.16791,-58.12382 1.87586,-126.82835 23.95301,-181.96839 28.21391,-70.46727 68.63003,-110.30952 139.80187,-137.81682 20.46074,-7.90789 37.55144,-13.16877 95.9622,-29.53916 26.11573,-7.31928 40.51946,-13.67436 59.3046,-26.16584 13.33324,-8.86616 30.93667,-26.14106 40.6382,-39.87978 8.44703,-11.96217 18.85682,-32.24875 26.16996,-51 9.39902,-24.09954 11.64982,-28.9624 19.68556,-42.53073 30.05719,-50.751494 70.03499,-76.075822 135.65469,-85.931746 20.0001,-3.00397 41.8438,-3.738137 73.7498,-2.47873 88.8959,3.508934 147.8606,-8.430322 181.1595,-36.6814283 L 1339.819,0 H 1389.9095 1440 v 574.5 c 0,315.975 0.1404,574.5 0,574.5 -0.1404,0 -4.9355,-5.2875 -10.3439,-11.75 z"
       id="path5323" />
    <path
       style="fill:#3331a9"
       d="M 86,193.36651 C 84.625,193.16789 79.45,192.50059 74.5,191.88362 49.516177,188.76962 22.906158,179.52773 4.8058023,167.6782 L 0,164.53205 V 82.266025 0 H 348.61636 697.23272 L 693.494,4.1383196 C 678.77179,20.434046 644.35906,43.55176 617.08763,55.466432 595.51434,64.89163 567.31513,73.512812 543.5,77.96395 c -20.80291,3.888145 -33.0518,5.144637 -55.5,5.693196 -24.67526,0.602982 -24.13514,0.661221 -66,-7.116462 -70.14455,-13.031503 -105.82285,-12.707985 -133.5,1.210533 -17.15685,8.627979 -26.76583,16.750757 -62,52.410543 -15.4,15.58603 -31.22617,30.94707 -35.16926,34.13564 -19.15981,15.49354 -41.37253,24.84437 -66.99655,28.20339 -10.21928,1.33963 -31.695741,1.82464 -38.33419,0.86572 z"
       id="path896" />
    <path
       style="fill:#2a2c89"
       d="m 1409.8809,301.1582 c -1.7156,0.008 -3.3535,0.0453 -4.8633,0.11719 -23.2157,1.1051 -43.9352,7.10554 -71.5176,20.71094 -21.2009,10.45763 -37.8685,20.77535 -70.8262,43.8457 -30.0979,21.0684 -33.6575,23.32888 -46.1133,29.27539 -19.1832,9.15821 -35.6539,12.14312 -76.5605,13.875 -30.443,1.28888 -47.1725,2.56682 -60,4.58594 -29.1115,4.58231 -53.0677,13.80584 -76.0898,29.29297 -13.89914,9.35002 -20.56496,14.79702 -45.68364,37.33984 -31.77855,28.51974 -42.88274,36.92645 -58.60351,44.36133 -26.01027,12.30113 -58.16458,15.73613 -127.12305,13.58398 -66.30255,-2.06926 -81.05894,-1.50356 -100.5,3.84961 -22.36702,6.15883 -52.74103,27.42149 -66.55664,46.5918 -5.66171,7.85612 -10.83731,18.83884 -13.625,28.91211 -1.8964,6.85258 -2.20792,10.43826 -2.16992,25 0.0392,15.03215 0.34384,18.1252 2.63281,26.7207 5.44523,20.44774 14.03557,37.41708 27.48437,54.29492 9.46102,11.87329 19.72126,21.20881 32.69922,29.75 63.4984,41.79021 226.50645,80.22219 440.03516,103.7461 64.1459,7.06679 104.8647,17.92756 150,40.01172 40.5128,19.82241 73.315,43.90206 109.168,80.13672 24.7756,25.03934 41.01,44.37484 72.332,86.14844 8.525,11.3697 15.925,20.6716 16.0625,20.6816 L 1440,304.34375 c -2.2981,-1.80509 -18.11,-3.2399 -30.1191,-3.18555 z"
       id="path894"
       inkscape:connector-curvature="0"
       sodipodi:nodetypes="csscssscssssccscssssscccc" />
  </g>
  <path
     inkscape:connector-curvature="0"
     style="fill:#3935c0;fill-opacity:1"
     d="m 1440.0621,989 c -0.017,-104.8874 -0.053,-250.90414 -0.053,-414.49414 v -88.5 c -0.2417,0 -6.2351,-1.30775 -12.7812,-2.90625 -25.5723,-6.24448 -36.345,-7.50057 -64.7188,-7.54883 -23.2044,-0.0395 -27.2079,0.19925 -37.2285,2.23047 -33.7329,6.83791 -56.5842,19.71401 -98.5801,55.54297 -36.5438,31.17747 -59.3807,43.25284 -89.1875,47.16016 -23.7122,3.10841 -44.3246,1.26199 -105.3965,-9.44141 -41.92619,-7.34795 -43.80149,-7.54154 -72.60739,-7.49609 -22.4299,0.0354 -27.6752,0.34539 -38.1973,2.26367 -22.639,4.12734 -41.3599,9.66017 -67.125,19.83789 -75.3171,29.75184 -112.0053,54.64105 -128.037,86.85742 -11.9114,23.93637 -10.9776,34.7558 4.3183,50.03125 31.0162,30.97455 105.7349,56.47391 196.041,66.9043 7.15,0.82583 25.6,2.41914 41,3.54101 55.91799,4.07354 93.36659,9.13318 141.06639,19.05469 100.7719,20.96048 185.0818,54.77699 230.2109,92.33789 4.7979,3.9933 13.6731,12.5657 19.7227,19.0488 13.4773,14.443 27.0457,26.7858 43.5,39.5743 13.7858,10.7145 38.0237,25.9836 38.0527,26.0019 z"
     id="path5323-3" />
</svg>
