<svg width="328" height="69" viewBox="0 0 328 69" fill="none" xmlns="http://www.w3.org/2000/svg">
<path d="M188.21 0.542917C194.698 0.44859 200.749 1.93711 205.948 5.96556C212.342 10.9189 215.401 17.6828 216 25.6109C216.4 30.9024 215.744 36.0904 213.402 40.9493C210.207 47.5844 205.06 52.1259 198.121 54.4611C190.676 56.9665 183.199 56.8883 175.865 53.8882C168.878 51.0285 164.044 45.974 161.601 38.8834C158.672 30.3525 159.095 21.8907 163.441 13.8775C167.654 6.1013 174.51 2.08436 183.103 0.782185C183.775 0.66769 184.453 0.590882 185.134 0.55212C186.16 0.513008 187.186 0.542917 188.21 0.542917ZM206.208 27.0718C206.019 26.0158 205.849 23.9107 205.253 21.9367C203.162 15.0071 198.542 10.6037 191.387 9.36593C184.43 8.16269 178.32 10.04 173.819 15.7457C169.924 20.6806 169.08 26.4207 170.212 32.4461C173.115 47.9341 189.429 51.1551 198.786 44.0966C204.071 40.1096 206.001 34.4937 206.208 27.0718Z" fill="white"/>
<path d="M104.765 28.1253C106.01 28.4865 107.013 28.6936 107.952 29.064C113.36 31.199 116.36 36.3456 116.004 42.2905C115.587 49.0751 111 53.4878 104.901 55.0016C102.04 55.6773 99.1156 56.0445 96.1768 56.0967C90.248 56.2601 84.31 56.145 78.3766 56.145H76.895V3.24833C85.442 3.21382 93.9429 2.52362 102.375 3.68315C107.059 4.32503 110.906 6.71772 112.748 11.2523C115.199 17.2708 113.807 24.5133 105.814 27.6813C105.54 27.7986 105.271 27.9114 104.765 28.1253ZM86.4128 32.8141V47.9616C89.9029 47.9616 93.2688 47.9777 96.6347 47.9616C98.7398 47.9501 100.792 47.6671 102.706 46.6847C105.492 45.256 106.787 42.8265 106.475 39.5044C106.162 36.1822 104.818 34.4567 101.595 33.5917C96.6093 32.2481 91.518 33.0717 86.4128 32.8141ZM86.3622 24.695C89.3531 24.695 92.2105 24.7595 95.0587 24.6697C96.5464 24.6433 98.0258 24.4426 99.4668 24.0716C102.536 23.2249 104.374 20.7724 104.298 17.9403C104.213 14.6941 102.446 12.3152 99.0204 11.8689C94.8655 11.3259 90.6437 11.3052 86.3668 11.0545L86.3622 24.695Z" fill="white"/>
<path d="M0 3.47627C2.59514 3.47627 4.97632 3.44176 7.3621 3.51538C7.67959 3.51538 8.12132 4.00312 8.27086 4.36202C11.7126 12.6122 15.1322 20.8731 18.5295 29.1447C19.7948 32.2299 19.7511 32.2483 23.0802 32.2483C25.4706 32.2483 27.8633 32.1632 30.249 32.2828C31.6064 32.3495 32.2345 31.9009 32.7521 30.6286C36.2261 22.0679 39.8221 13.5577 43.3053 5.0016C43.7792 3.83747 44.3198 3.35433 45.6059 3.43485C47.6351 3.56139 49.6758 3.46936 51.9166 3.46936C50.6167 6.63277 49.4066 9.62362 48.1734 12.5869C42.2516 26.8693 36.3335 41.1503 30.4193 55.4297C29.996 56.4604 29.499 56.7227 28.2291 56.58C26.7466 56.3902 25.246 56.3902 23.7635 56.58C22.5027 56.7503 21.992 56.4857 21.5871 55.5033C17.5149 45.6105 13.4174 35.7322 9.29465 25.8686C6.42343 18.9512 3.54378 12.0339 0.655687 5.11664C0.460131 4.6496 0.278379 4.17567 0 3.47627Z" fill="white"/>
<path d="M125.388 3.19556H134.759V47.5798H157.232V56.0462H125.388V3.19556Z" fill="white"/>
<path d="M65.2028 3.18628H55.8828V56.0945H65.2028V3.18628Z" fill="white"/>
<path d="M48.6794 61.0547H3.21387V68.6192H48.6794V61.0547Z" fill="white"/>
<path fill-rule="evenodd" clip-rule="evenodd" d="M266.773 0.271484L271.296 12.465C271.296 12.465 256.203 9.05769 250.847 24.15C247.56 32.5612 256.015 53.8285 281.52 38.7546C281.633 38.7085 285.891 48.9787 285.891 48.9787C285.891 48.9787 281.389 52.876 276.764 54.3254C272.14 55.7748 248.97 58.9773 241.668 40.2339C238.017 30.9852 238.15 18.9321 246.269 9.23714C250.64 4.12508 256.194 1.98547 262.523 0.768426C263.924 0.486899 265.345 0.320695 266.773 0.271484Z" fill="#F5861F"/>
<path fill-rule="evenodd" clip-rule="evenodd" d="M273.96 0H285.645L300.599 36.3918L316.324 0H328L306.091 54.0401H294.41L273.96 0Z" fill="#F5861F"/>
</svg>
