<?xml version="1.0" encoding="utf-8"?>
<!-- Generator: Adobe Illustrator 23.0.1, SVG Export Plug-In . SVG Version: 6.00 Build 0)  -->
<svg version="1.1" id="Layer_1" xmlns="http://www.w3.org/2000/svg" xmlns:xlink="http://www.w3.org/1999/xlink" x="0px" y="0px"
	 viewBox="0 0 1927 500" style="enable-background:new 0 0 1927 500;" xml:space="preserve">
<style type="text/css">
	.st0{fill:#6B717B;}
	.st1{fill:#F5861F;}
	.st2{fill:#5387C6;}
	.st3{fill:#5285C5;}
</style>
<title>Viblo logo final</title>
<rect id="_Path_" x="406.3" y="58.8" class="st0" width="45.7" height="329.5"/>
<path id="_Compound_Path_" class="st0" d="M669.5,211.6c8-7.3,14.2-14.7,18.5-22c6.7-11.5,10.1-24.8,10.1-39.8c0-12.1-2.3-24-7-35.2
	c-8.4-20-22.9-34.9-43-44.2c-16.5-7.8-36.8-11.7-60.2-11.7h-86.3v329.5h94c17.2,0,31.1-1,41.3-3c14-2.7,27.4-7.9,39.5-15.5l0,0
	c26.3-16.6,39.7-43.1,39.7-78.8C716,254.4,700.4,227.8,669.5,211.6z M630.6,186.7c-6.6,3.5-14.6,5.8-24.1,7c-4.2,0.6-8.5,0.9-12.8,1
	l-46.4,0.2v-93.3h35c6.3,0,11.9,0.1,16.5,0.4c5.5,0.4,10.9,1.3,16.3,2.6c11.3,2.6,20.1,7.3,26,14.2l0,0c7.4,8.2,11.5,18.9,11.4,29.9
	C652.4,166.5,645.3,179,630.6,186.7L630.6,186.7z M547.2,237.4h47.1c5.7,0.1,10.7,0.4,15.2,0.8c10.9,0.9,20.4,2.9,28.1,6
	c22,9,32.6,24.3,32.6,46.7c0,23.6-9.5,39-29,47.2c-8.6,3.5-17.7,5.7-26.9,6.5l-14.8,0.8l-52.2,0.2L547.2,237.4L547.2,237.4z"/>
<polygon id="_Path_2" class="st0" points="795.1,58.8 749.4,58.8 749.4,388.3 925.3,388.3 925.3,345.7 795.1,345.7 "/>
<path id="_Compound_Path_2" class="st0" d="M1215.6,105.1c-33.3-32.2-73.6-48.5-119.9-48.5c-46.8,0-87.3,16.4-120.3,48.9
	c-33.2,32.8-50,73-50,119.6c0,45.4,17.3,84.9,51.3,117.4c33.5,31.9,73.6,48,119,48c46.1,0,86.4-16.3,119.7-48.5
	c33.9-32.6,51.1-72.5,51.1-118.6S1249.3,137.6,1215.6,105.1z M1095.7,348.2c-33.6,0-63.1-12.2-87.7-36.3
	c-24.8-24.1-37.3-53.3-37.3-86.8c0-34.4,12.3-64.4,36.4-89.1c24.2-24.7,54.1-37.2,88.6-37.2c34.1,0,63.9,12.4,88.4,36.8
	s37,54.1,37,88.2s-12.5,63.6-37.2,87.8S1129.7,348.2,1095.7,348.2z"/>
<path class="st1" d="M1555.7,296.8c-20.6,20.2-45.3,30.4-73.5,30.4c-27.9,0-52.5-10.2-73-30.2c-20.6-20.1-31.1-44.3-31.1-71.9
	c0-28.7,10.2-53.7,30.4-74.2c20.1-20.5,44.9-30.9,73.6-30.9c8.6,0,16.9,1,24.8,2.8l-27.5-66c-45.6,0.6-85.1,17-117.4,48.8
	c-33.2,32.7-50,72.9-50,119.5c0,45.5,17.3,85.1,51.3,117.6c33.4,31.8,73.4,47.8,118.7,47.8c44.9,0,84.3-15.5,117-46.1l-27.8-66.9
	C1567,284.4,1561.8,290.8,1555.7,296.8z"/>
<polygon id="_Path_3" class="st2" points="202.7,388.3 251.4,388.3 388,58.8 339,58.8 264.9,237.4 188.3,237.4 114.5,58.8 
	65.6,58.8 "/>
<rect id="_Path_4" x="85.1" y="416.6" class="st3" width="283.2" height="41.3"/>
<polygon class="st1" points="1843,58.8 1797.5,58.8 1789.5,58.8 1786.5,66.2 1779.9,82.1 1693.5,291.4 1612.5,95.4 1600.5,66.2 
	1597.4,58.8 1589.4,58.8 1544.1,58.8 1526.1,58.8 1533,75.4 1660.1,380.9 1663.2,388.3 1671.2,388.3 1716.3,388.3 1724.3,388.3 
	1727.4,380.9 1854.1,75.4 1861,58.8 "/>
</svg>
