<svg width="580" height="90" viewBox="0 0 580 90" fill="none" xmlns="http://www.w3.org/2000/svg">
<path fill-rule="evenodd" clip-rule="evenodd" d="M148.09 68.128H154.796V19.8213H148.09V68.128Z" fill="white"/>
<path fill-rule="evenodd" clip-rule="evenodd" d="M168.759 46.0052H175.668C176.504 46.0206 177.237 46.0638 177.897 46.1223C179.307 46.2115 180.697 46.5096 182.019 47.0067C185.247 48.3256 186.801 50.569 186.801 53.854C186.801 57.3115 185.407 59.5703 182.546 60.7721C181.286 61.2855 179.956 61.6065 178.6 61.7243L176.442 61.8414L168.787 61.8722V46.0052H168.759ZM180.992 38.5725C179.889 39.129 178.694 39.4809 177.465 39.6109C176.843 39.6976 176.216 39.7469 175.588 39.7589L168.784 39.7866V26.0952H173.917C174.842 26.0952 175.662 26.0952 176.337 26.1537C177.143 26.2151 177.942 26.3429 178.726 26.5358C180.385 26.918 181.677 27.6051 182.54 28.619C183.627 29.819 184.224 31.3825 184.214 33.001C184.199 35.6111 183.157 37.4446 181.002 38.5725H180.992ZM186.715 42.2241C187.772 41.2871 188.686 40.2001 189.428 38.9977C190.435 37.2208 190.946 35.2061 190.907 33.1643C190.914 31.3925 190.564 29.6374 189.881 28.0027C188.69 25.1146 186.43 22.7968 183.573 21.5314C181.153 20.3881 178.178 19.8149 174.743 19.8149H162.069V68.1155H175.859C177.888 68.1543 179.916 68.0068 181.917 67.6748C183.972 67.2826 185.937 66.5125 187.71 65.4037C191.567 62.9692 193.534 59.0834 193.534 53.8509C193.534 48.4982 191.231 44.6062 186.699 42.2241H186.715Z" fill="white"/>
<path fill-rule="evenodd" clip-rule="evenodd" d="M205.12 19.8213H198.417V68.128H224.219V61.8847H205.12V19.8213Z" fill="white"/>
<path fill-rule="evenodd" clip-rule="evenodd" d="M249.214 62.2514C244.281 62.2514 239.965 60.461 236.348 56.9295C232.732 53.398 230.879 49.1146 230.879 44.2026C230.851 41.7794 231.308 39.375 232.225 37.1315C233.141 34.8879 234.498 32.8506 236.216 31.1399C237.89 29.3851 239.908 27.9948 242.145 27.0562C244.382 26.1176 246.788 25.651 249.214 25.6855C254.214 25.6855 258.586 27.5036 262.162 31.0813C265.739 34.659 267.592 39.0133 267.592 44.0239C267.592 49.0345 265.742 53.3487 262.135 56.8956C258.527 60.4425 254.183 62.2637 249.186 62.2637M266.759 26.6223C261.876 21.9013 255.969 19.51 249.186 19.51C242.32 19.51 236.379 21.9167 231.539 26.6808C226.698 31.4449 224.204 37.3831 224.204 44.215C224.204 50.8711 226.741 56.6614 231.73 61.4255C236.644 66.1033 242.52 68.4638 249.186 68.4638C255.947 68.4638 261.857 66.0756 266.741 61.3546C271.741 56.5597 274.273 50.7047 274.273 43.953C274.273 37.2013 271.748 31.3741 266.805 26.6099" fill="white"/>
<path fill-rule="evenodd" clip-rule="evenodd" d="M118.228 68.128H125.371L145.408 19.8213H138.221L127.35 46.0054H116.116L105.291 19.8213H98.1172L118.228 68.128Z" fill="white"/>
<path fill-rule="evenodd" clip-rule="evenodd" d="M100.979 78.3341H142.516V72.2788H100.979V78.3341Z" fill="white"/>
<path d="M310.961 68.1743V60.8278H294.83V20.1511H285.236V68.1743H310.961ZM333.624 68.6488C336.566 68.6889 339.48 68.0852 342.164 66.88C344.628 65.7806 346.788 64.1004 348.46 61.9834C350.086 59.9153 351.184 57.4828 351.66 54.8958H341.52C341.172 56.6747 340.168 58.2583 338.708 59.3332C337.234 60.4221 335.384 60.9665 333.158 60.9665C330.665 60.9665 328.578 60.1724 326.897 58.5844C325.216 56.9964 324.308 54.525 324.174 51.1702H351.808C352.02 50.0939 352.133 49.0006 352.147 47.9037C352.147 44.4585 351.387 41.3862 349.868 38.6867C348.357 35.9964 346.111 33.7906 343.394 32.3264C340.603 30.7856 337.347 30.0141 333.627 30.0121C329.952 30.0121 326.685 30.7835 323.826 32.3264C320.987 33.8484 318.666 36.1805 317.158 39.0257C315.567 41.9532 314.772 45.3891 314.774 49.3335C314.776 53.2779 315.571 56.7016 317.158 59.6044C318.679 62.4407 320.997 64.7704 323.826 66.3068C326.685 67.8682 329.952 68.6488 333.627 68.6488H333.624ZM342.472 46.9484H324.162C324.345 43.8668 325.321 41.531 327.091 39.9409C328.861 38.3508 331.038 37.5578 333.624 37.5619C336.164 37.5619 338.308 38.3549 340.055 39.9409C341.802 41.5269 342.608 43.8627 342.472 46.9484ZM373.71 68.6488C376.885 68.6488 379.607 67.8897 381.876 66.3715C384.099 64.9117 385.793 62.7772 386.711 60.2824V68.1743H396.237V30.4867H386.711V38.3108C385.796 35.8213 384.098 33.6962 381.87 32.2555C379.609 30.7578 376.887 30.009 373.703 30.009C370.686 29.9671 367.716 30.7687 365.129 32.3233C362.589 33.8641 360.604 36.0972 359.173 39.0226C357.743 41.948 357.023 45.384 357.015 49.3305C357.015 53.2749 357.734 56.7098 359.173 59.6352C360.462 62.4024 362.532 64.7322 365.129 66.3376C367.719 67.8928 370.692 68.6933 373.713 68.6488H373.71ZM376.706 60.2146C373.71 60.2146 371.305 59.2511 369.492 57.324C367.679 55.397 366.77 52.7325 366.763 49.3305C366.763 45.9284 367.671 43.2577 369.486 41.3184C371.301 39.379 373.705 38.4042 376.7 38.394C379.602 38.394 381.996 39.3801 383.88 41.3523C385.765 43.3245 386.707 45.989 386.705 49.3459C386.705 52.6555 385.763 55.2974 383.88 57.2717C381.998 59.2459 379.607 60.2269 376.709 60.2146H376.706ZM414.55 68.1743V50.0115C414.55 43.4786 418.066 40.2131 425.097 40.2152H427.872V29.9412C425.145 29.9065 422.46 30.6252 420.115 32.0182C417.799 33.4024 415.878 35.358 414.535 37.6975V30.4867H404.937V68.1743H414.55ZM442.794 68.1743V48.1749C442.794 44.8632 443.616 42.323 445.26 40.5541C446.905 38.7853 449.082 37.9009 451.793 37.9009C454.465 37.9009 456.575 38.7288 458.123 40.3847C459.671 42.0405 460.441 44.365 460.435 47.3583V68.1743H469.965V46.2674C469.965 41.1006 468.672 37.0874 466.086 34.2277C463.501 31.368 460.029 29.9392 455.672 29.9412C452.877 29.8899 450.126 30.6383 447.742 32.0983C445.487 33.4849 443.753 35.5766 442.809 38.0488V30.499H433.212V68.1866L442.794 68.1743ZM483.222 24.8412C484.991 24.8412 486.42 24.3533 487.507 23.3775C488.035 22.9192 488.455 22.3502 488.738 21.711C489.02 21.0718 489.158 20.3782 489.141 19.6796C489.164 18.9689 489.029 18.262 488.747 17.6094C488.464 16.9568 488.041 16.3747 487.507 15.9047C486.418 14.9268 484.989 14.4389 483.222 14.4409C481.454 14.443 480.025 14.9237 478.933 15.8831C478.4 16.3537 477.977 16.9359 477.695 17.5884C477.413 18.2408 477.277 18.9475 477.299 19.658C477.283 20.3565 477.421 21.0499 477.704 21.689C477.986 22.3282 478.406 22.8972 478.933 23.3559C480.023 24.3461 481.452 24.8412 483.222 24.8412ZM487.985 68.1743V30.4867H478.388V68.1743H487.985ZM506.292 68.1743V48.1749C506.292 44.8632 507.114 42.323 508.758 40.5541C510.403 38.7853 512.58 37.9009 515.291 37.9009C517.963 37.9009 520.073 38.7288 521.621 40.3847C523.169 42.0405 523.94 44.365 523.936 47.3583V68.1743H533.463V46.2674C533.463 41.1006 532.17 37.0874 529.584 34.2277C526.999 31.368 523.527 29.9392 519.17 29.9412C516.376 29.89 513.626 30.6384 511.243 32.0983C508.987 33.4833 507.253 35.5755 506.311 38.0488V30.499H496.716V68.1866L506.292 68.1743ZM560.945 86.6637C564.85 86.6637 568.174 85.8707 570.915 84.2847C573.593 82.7674 575.752 80.4791 577.109 77.7179C578.526 74.7823 579.237 71.5564 579.184 68.2975V30.4867H569.654V38.3108C568.743 35.8225 567.048 33.6975 564.823 32.2555C562.563 30.7578 559.84 30.009 556.656 30.009C553.639 29.9671 550.669 30.7687 548.083 32.3233C545.54 33.8641 543.555 36.0972 542.126 39.0226C540.698 41.948 539.978 45.384 539.968 49.3305C539.968 53.2749 540.687 56.7098 542.126 59.6352C543.565 62.5607 545.55 64.7948 548.083 66.3376C550.669 67.8912 553.639 68.6916 556.656 68.6488C559.832 68.6488 562.554 67.8897 564.823 66.3715C567.045 64.9113 568.738 62.7768 569.654 60.2824V68.2944C569.654 71.6513 568.793 74.1566 567.071 75.8104C565.349 77.4642 563.079 78.2921 560.264 78.2941C557.812 78.2941 555.803 77.761 554.239 76.6948C552.682 75.6391 551.559 74.0567 551.076 72.2388H541.614C542.342 76.6866 544.384 80.2016 547.74 82.784C551.097 85.3663 555.498 86.6637 560.945 86.676V86.6637ZM559.65 60.2022C556.655 60.2022 554.251 59.2387 552.436 57.3117C550.621 55.3847 549.713 52.7202 549.713 49.3181C549.713 45.9161 550.621 43.2454 552.436 41.306C554.251 39.3667 556.655 38.3919 559.65 38.3816C562.554 38.3816 564.948 39.3677 566.83 41.3399C568.713 43.3122 569.654 45.9767 569.654 49.3335C569.654 52.6431 568.713 55.2851 566.83 57.2593C564.948 59.2336 562.554 60.2187 559.65 60.2146V60.2022Z" fill="#FAD20B"/>
<path fill-rule="evenodd" clip-rule="evenodd" d="M36.8792 46.8188L16.6021 36.7144C16.3051 36.566 15.9751 36.4958 15.6434 36.5105C15.3117 36.5251 14.9892 36.6241 14.7064 36.7982C14.4237 36.9722 14.19 37.2154 14.0276 37.5049C13.8651 37.7944 13.7792 38.1205 13.7781 38.4524V58.3747C13.7781 58.7365 13.8791 59.0912 14.0697 59.3988C14.2603 59.7063 14.533 59.9547 14.8571 60.1158L36.8792 73.1169C37.9028 73.6256 39.0303 73.8903 40.1734 73.8903C41.3165 73.8903 42.4441 73.6256 43.4676 73.1169L65.4959 60.1158C65.82 59.9547 66.0927 59.7063 66.2834 59.3988C66.474 59.0912 66.575 58.7365 66.575 58.3747V38.4524C66.5738 38.1205 66.4879 37.7944 66.3255 37.5049C66.163 37.2154 65.9294 36.9722 65.6466 36.7982C65.3639 36.6241 65.0414 36.5251 64.7096 36.5105C64.3779 36.4958 64.0479 36.566 63.7509 36.7144L43.4676 46.8188C42.4441 47.3275 41.3165 47.5922 40.1734 47.5922C39.0303 47.5922 37.9028 47.3275 36.8792 46.8188Z" fill="#FAD20B"/>
<path fill-rule="evenodd" clip-rule="evenodd" d="M75.1393 19.6518L42.4777 0.561479C41.7414 0.192265 40.9291 0 40.1053 0C39.2816 0 38.4692 0.192265 37.7329 0.561479L5.07131 19.6672C4.73384 19.8363 4.45009 20.0959 4.2518 20.417C4.0535 20.7381 3.94849 21.108 3.94849 21.4853C3.94849 21.8627 4.0535 22.2326 4.2518 22.5536C4.45009 22.8747 4.73384 23.1343 5.07131 23.3035L37.6898 39.6111C38.4402 39.9864 39.2677 40.1819 40.1069 40.1819C40.946 40.1819 41.7735 39.9864 42.5239 39.6111L67.8603 26.9397C64.5953 18.7951 55.8118 16.9462 55.8118 16.9462C64.1175 16.9462 68.2919 22.265 70.1479 25.7965L75.1393 23.2788C75.4768 23.1097 75.7605 22.8501 75.9588 22.529C76.1571 22.2079 76.2621 21.838 76.2621 21.4607C76.2621 21.0834 76.1571 20.7135 75.9588 20.3924C75.7605 20.0713 75.4768 19.8117 75.1393 19.6426" fill="#FAD20B"/>
<path fill-rule="evenodd" clip-rule="evenodd" d="M55.8738 16.906C55.8738 16.906 65.9275 18.3266 69.1832 27.71H72.1553C72.1553 27.71 68.1905 16.0524 55.8738 16.906Z" fill="#FFC816"/>
<path fill-rule="evenodd" clip-rule="evenodd" d="M67.6079 30.203C67.6079 30.899 67.8144 31.5794 68.2013 32.1581C68.5881 32.7368 69.138 33.1879 69.7814 33.4543C70.4247 33.7206 71.1326 33.7903 71.8156 33.6545C72.4986 33.5187 73.1259 33.1836 73.6183 32.6914C74.1107 32.1992 74.446 31.5722 74.5819 30.8895C74.7177 30.2069 74.648 29.4993 74.3815 28.8563C74.1151 28.2132 73.6638 27.6636 73.0848 27.2769C72.5058 26.8902 71.8251 26.6838 71.1287 26.6838C70.1949 26.6838 69.2994 27.0546 68.6391 27.7146C67.9788 28.3745 67.6079 29.2697 67.6079 30.203Z" fill="#FFC816"/>
<path fill-rule="evenodd" clip-rule="evenodd" d="M80.994 46.2242V35.0967C80.994 34.2205 80.6458 33.3803 80.026 32.7608C79.4062 32.1413 78.5656 31.7932 77.689 31.7932C76.8125 31.7932 75.9719 32.1413 75.3521 32.7608C74.7322 33.3803 74.384 34.2205 74.384 35.0967V41.2259C76.2523 44.3075 79.7547 45.5154 81.0033 46.2242" fill="#5387C6"/>
<path fill-rule="evenodd" clip-rule="evenodd" d="M74.3318 51.1271V61.6322C74.2852 62.4489 74.0478 63.2432 73.6388 63.9517C73.2298 64.6602 72.6604 65.2631 71.9764 65.7122L42.8294 82.5376C42.0983 82.9055 41.2911 83.0972 40.4725 83.0972C39.6539 83.0972 38.8466 82.9055 38.1155 82.5376L8.97162 65.7122C7.67366 64.9665 6.61618 63.1298 6.61618 61.6322V35.0721C6.61618 34.1952 6.26765 33.3542 5.64726 32.7341C5.02688 32.114 4.18545 31.7656 3.30809 31.7656C2.43073 31.7656 1.5893 32.114 0.968917 32.7341C0.348529 33.3542 0 34.1952 0 35.0721V61.6322C0 65.4872 2.33077 69.521 5.66661 71.4501L34.8136 88.2724C36.5509 89.2245 38.5003 89.7236 40.4817 89.7236C42.4631 89.7236 44.4125 89.2245 46.1499 88.2724L75.2968 71.4501C78.6265 69.5241 80.9665 65.4965 80.9665 61.6322V47.1488C80.7942 47.5191 80.5757 47.8659 80.316 48.1811C78.6789 50.1626 75.5897 50.8991 74.3411 51.1271" fill="#5387C6"/>
<path fill-rule="evenodd" clip-rule="evenodd" d="M69.4822 33.6419C69.4822 33.6419 65.6161 40.5539 73.7769 51.3024C73.7769 51.3024 79.4188 50.6522 80.9912 47.2255C80.9912 47.2255 71.1594 42.6031 72.8243 33.2043C72.8243 33.2043 70.3578 30.1936 69.4822 33.6419Z" fill="#FFC816"/>
</svg>
