<svg id="Layer_1" data-name="Layer 1" xmlns="http://www.w3.org/2000/svg" xmlns:xlink="http://www.w3.org/1999/xlink" viewBox="0 0 1962 351"><defs><style>.cls-1{fill:#fff;}.cls-1,.cls-2,.cls-3,.cls-4,.cls-6,.cls-7{fill-rule:evenodd;}.cls-2{fill:#6b717b;}.cls-3{fill:#5387c6;}.cls-4{fill:#5285c5;}.cls-5,.cls-6{fill:#fad20b;}.cls-7{fill:#ffc816;}.cls-8{mask:url(#mask);}</style><mask id="mask" x="295.62" y="120.74" width="21.47" height="46.72" maskUnits="userSpaceOnUse"><g id="mask-2"><polygon id="path-1" class="cls-1" points="295.62 120.74 317.09 120.74 317.09 167.46 295.62 167.46 295.62 120.74"/></g></mask></defs><g id="Web"><g id="CERTIFICATE"><g id="Logo-VibloLearning"><g id="logo-Viblo"><polygon id="Fill-26" class="cls-2" points="534.72 238.54 556.47 238.54 556.47 81.78 534.72 81.78 534.72 238.54"/><path id="Fill-27" class="cls-2" d="M601.76,166.75h22.41c2.71.05,5.09.19,7.23.38A46.29,46.29,0,0,1,644.77,170c10.47,4.28,15.51,11.56,15.51,22.22,0,11.22-4.52,18.55-13.8,22.45a44,44,0,0,1-12.8,3.09l-7,.38-24.83.1V166.75Zm39.68-24.12A33.13,33.13,0,0,1,630,146a51.2,51.2,0,0,1-6.09.48l-22.07.09V102.14h16.65c3,0,5.66,0,7.85.19a47.56,47.56,0,0,1,7.75,1.24c5.38,1.24,9.57,3.47,12.37,6.76a21,21,0,0,1,5.43,14.22c-.05,8.47-3.43,14.42-10.42,18.08ZM660,154.48a46.84,46.84,0,0,0,8.8-10.47,37,37,0,0,0,4.8-18.93,43.05,43.05,0,0,0-3.33-16.75,39.39,39.39,0,0,0-20.46-21c-7.85-3.71-17.5-5.57-28.64-5.57H580.06V238.5h44.73a107.44,107.44,0,0,0,19.65-1.43,54.83,54.83,0,0,0,18.79-7.37c12.51-7.9,18.89-20.51,18.89-37.49,0-17.37-7.47-30-22.17-37.73Z"/><polygon id="Fill-28" class="cls-2" points="719.7 81.78 697.96 81.78 697.96 238.54 781.65 238.54 781.65 218.28 719.7 218.28 719.7 81.78"/><path id="Fill-29" class="cls-2" d="M862.72,219.47c-16,0-30-5.81-41.73-17.27s-17.74-25.36-17.74-41.3a58.88,58.88,0,0,1,17.31-42.39,57.13,57.13,0,0,1,42.16-17.7c16.22,0,30.4,5.9,42,17.51s17.61,25.74,17.61,42-6,30.26-17.7,41.77-25.79,17.42-42,17.42m57-115.66c-15.84-15.32-35-23.08-57-23.08-22.27,0-41.54,7.81-57.24,23.27s-23.79,34.73-23.79,56.9c0,21.6,8.23,40.39,24.41,55.85,15.94,15.18,35,22.84,56.62,22.84,21.93,0,41.1-7.75,56.94-23.07C935.79,201,944,182,944,160.09s-8.19-40.82-24.22-56.28"/><polygon id="Fill-31" class="cls-3" points="437.86 238.54 461.03 238.54 526.02 81.78 502.71 81.78 467.45 166.75 431.01 166.75 395.9 81.78 372.63 81.78 437.86 238.54"/><polygon id="Fill-32" class="cls-4" points="381.91 271.66 516.64 271.66 516.64 252.01 381.91 252.01 381.91 271.66"/></g><path id="Learning" class="cls-5" d="M1063,238.69V214.85h-52.32v-132H979.56V238.69Zm73.51,1.54a65.41,65.41,0,0,0,27.7-5.74,54.12,54.12,0,0,0,20.42-15.89,52.61,52.61,0,0,0,10.38-23h-32.89A23.48,23.48,0,0,1,1153,210q-7.17,5.3-18,5.3-12.13,0-20.31-7.73t-8.83-24.06h89.63a58.53,58.53,0,0,0,1.1-10.6q0-16.77-7.39-29.91a52.85,52.85,0,0,0-21-20.64q-13.58-7.5-31.68-7.51-17.88,0-31.79,7.51a52.64,52.64,0,0,0-21.63,21.74q-7.74,14.25-7.73,33.45t7.73,33.33a53.55,53.55,0,0,0,21.63,21.75Q1118.64,240.23,1136.52,240.23Zm28.7-70.42h-59.39q.89-15,9.5-22.74t21.19-7.72q12.36,0,20.86,7.72t7.84,22.74Zm101.32,70.42q15.45,0,26.49-7.39a40.27,40.27,0,0,0,15.68-19.76h0v25.61h30.9V116.39h-30.9v25.39A39.7,39.7,0,0,0,1293,122.13q-11-7.29-26.49-7.29a52.55,52.55,0,0,0-27.81,7.51q-12.36,7.5-19.32,21.74t-7,33.45q0,19.2,7,33.44a50.76,50.76,0,0,0,19.32,21.75A52.55,52.55,0,0,0,1266.54,240.23Zm9.72-27.37q-14.58,0-23.4-9.38T1244,177.54q0-16.56,8.83-26t23.4-9.49q14.12,0,23.29,9.6t9.16,25.94q0,16.11-9.16,25.72T1276.26,212.86ZM1399,238.69V179.75q0-31.8,34.21-31.79h9V114.62a48.05,48.05,0,0,0-25.16,6.74,51.1,51.1,0,0,0-18.1,18.43h0v-23.4h-31.13v122.3Zm91.61,0v-64.9q0-16.12,8-24.73t21.19-8.61q13,0,20.53,8.06t7.5,22.63h0v67.55h30.91V167.6q0-25.15-12.58-39.07t-33.78-13.91a47.55,47.55,0,0,0-25.72,7,39,39,0,0,0-16,19.31h0v-24.5h-31.13v122.3ZM1621.74,98.07q8.61,0,13.9-4.75a15.41,15.41,0,0,0,5.3-12,15.66,15.66,0,0,0-5.3-12.25q-5.3-4.76-13.9-4.75T1607.83,69a15.7,15.7,0,0,0-5.3,12.25,15.44,15.44,0,0,0,5.3,12Q1613.13,98.07,1621.74,98.07Zm15.45,140.62V116.39h-31.13v122.3Zm59.38,0v-64.9q0-16.12,8-24.73t21.19-8.61q13,0,20.53,8.06t7.51,22.63h0v67.55h30.9V167.6q0-25.15-12.58-39.07t-33.78-13.91a47.52,47.52,0,0,0-25.71,7,38.91,38.91,0,0,0-16,19.31h0v-24.5h-31.12v122.3Zm177.27,60q19,0,32.34-7.72a49.69,49.69,0,0,0,20.09-21.31,67.85,67.85,0,0,0,6.73-30.57h0V116.39h-30.91v25.39a39.69,39.69,0,0,0-15.67-19.65q-11-7.29-26.49-7.29a52.55,52.55,0,0,0-27.81,7.51q-12.37,7.5-19.32,21.74t-7,33.45q0,19.2,7,33.44t19.32,21.75a52.55,52.55,0,0,0,27.81,7.5q15.45,0,26.49-7.39a40.26,40.26,0,0,0,15.67-19.76h0v26q0,16.34-8.38,24.39t-22.08,8.06q-11.93,0-19.54-5.19a25.32,25.32,0,0,1-10.26-14.46h-30.69q3.54,21.65,19.87,34.22T1873.84,298.73Zm-4.2-85.87q-14.57,0-23.4-9.38t-8.83-25.94q0-16.56,8.83-26t23.4-9.49q14.13,0,23.29,9.6t9.16,25.94q0,16.11-9.16,25.72T1869.64,212.86Z"/><g id="Group-17"><path id="Fill-1" class="cls-6" d="M174,169.39,108.23,136.6a6.33,6.33,0,0,0-9.16,5.64v64.65a6.31,6.31,0,0,0,3.5,5.65L174,254.73a24,24,0,0,0,21.37,0l71.45-42.19a6.31,6.31,0,0,0,3.5-5.65V142.24a6.33,6.33,0,0,0-9.16-5.64l-65.79,32.79a24,24,0,0,1-21.37,0"/><path id="Fill-3" class="cls-6" d="M298.1,81.23,192.16,19.28a17.16,17.16,0,0,0-15.39,0l-105.94,62a6.6,6.6,0,0,0,0,11.8L176.63,146a17.52,17.52,0,0,0,15.68,0l82.18-41.12c-10.59-26.43-39.08-32.43-39.08-32.43,26.94,0,40.48,17.26,46.5,28.72L298.1,93a6.6,6.6,0,0,0,0-11.8"/><path id="Fill-5" class="cls-7" d="M235.61,72.32s32.61,4.61,43.17,35.06h9.64s-12.86-37.83-52.81-35.06"/><path id="Fill-7" class="cls-7" d="M273.67,115.47a11.42,11.42,0,1,0,11.42-11.42,11.42,11.42,0,0,0-11.42,11.42"/><g id="Group-11"><g class="cls-8"><path id="Fill-9" class="cls-3" d="M317.09,167.46V131.35h0a10.72,10.72,0,0,0-21.44,0h0v19.89c6.06,10,17.42,13.92,21.47,16.22"/></g></g><path id="Fill-12" class="cls-3" d="M295.48,183.37v34.09a17,17,0,0,1-7.64,13.24L193.3,285.3a17,17,0,0,1-15.29,0L83.48,230.7c-4.21-2.42-7.64-8.38-7.64-13.24V131.27h0a10.73,10.73,0,0,0-21.46,0h0v86.19c0,12.51,7.56,25.6,18.38,31.86l94.54,54.59a38.24,38.24,0,0,0,36.77,0l94.54-54.59C309.41,243.07,317,230,317,217.46v-47a15.66,15.66,0,0,1-2.11,3.35c-5.31,6.43-15.33,8.82-19.38,9.56"/><g id="Group-16"><path id="Fill-14" class="cls-7" d="M279.75,126.63s-12.54,22.43,13.93,57.31c0,0,18.3-2.11,23.4-13.23,0,0-31.89-15-26.49-45.5,0,0-8-9.77-10.84,1.42"/></g></g></g></g></g></svg>