<svg width="383" height="59" viewBox="0 0 383 59" fill="none" xmlns="http://www.w3.org/2000/svg">
<path d="M62.5996 0.100708C68.5989 0.386881 74.5672 0.100708 80.3251 1.07646C89.4758 2.60731 92.241 11.2477 90.2153 17.4366C89.6137 19.3105 88.2656 20.9517 87.1916 22.8136C87.7329 23.2204 88.4914 23.7169 89.181 24.3186C92.4909 27.1493 93.6098 30.8937 93.3477 35.069C92.8547 43.0129 88.4707 47.5331 79.8079 48.2727C74.1517 48.7536 68.4196 48.3623 62.6117 48.3623L62.5996 0.100708ZM69.285 42.1544C71.521 42.1544 73.6518 42.1906 75.7808 42.1544C77.1427 42.1613 78.5029 42.0613 79.8493 41.8527C82.7317 41.3235 85.2659 40.2305 86.2917 37.1188C87.8105 32.4452 85.5969 28.0923 80.7768 27.2044C77.0479 26.5149 73.1846 26.5545 69.285 26.2632V42.1544ZM69.3023 6.70856V19.9484C72.3571 19.9484 75.3361 20.1915 78.2598 19.8846C81.7991 19.5122 83.8868 17.2884 84.0816 14.3749C84.3195 10.8426 82.7042 8.2963 79.4683 7.35848C76.1498 6.38273 72.7432 6.75338 69.3005 6.70856H69.3023Z" fill="white"/>
<path d="M147.721 48.795C134.986 49.1795 122.787 37.7136 123.239 23.8204C123.646 11.2408 134.393 -0.497471 148.788 0.0162625C160.893 0.448971 172.859 11.1494 172.333 25.403C171.888 37.9084 160.728 49.1778 147.719 48.795H147.721ZM147.769 42.5251C157.542 42.5251 165.684 34.3674 165.712 24.5496C165.736 14.5749 157.561 6.2845 147.715 6.30346C137.948 6.3207 129.893 14.5421 129.85 24.5341C129.811 34.2916 138.004 42.5216 147.769 42.5251Z" fill="white"/>
<path d="M104.674 42.1665H123.279V48.402H98.1868V0.474792H104.674V42.1682V42.1665Z" fill="white"/>
<path d="M48.9976 0.429993H55.4123V48.352H48.9976V0.429993Z" fill="white"/>
<path d="M2.91846 58.8818V52.9635H43.3861V58.8818H2.91846Z" fill="white"/>
<path d="M0 0.362784C2.28077 0.362784 4.33225 0.28693 6.36994 0.423121C6.83368 0.452428 7.43879 1.13683 7.65255 1.65746C10.7436 9.10831 13.7518 16.5816 16.7963 24.0566C18.0806 26.9942 17.741 26.4132 20.2563 26.4132C22.6008 26.4132 24.9436 26.3649 27.283 26.4373C28.2639 26.4666 28.4294 26.6907 29.088 25.234C32.2445 17.3918 35.4976 9.58757 38.6386 1.74021C39.0834 0.626546 39.635 0.280035 40.7745 0.340372C42.5623 0.436913 44.3586 0.367955 46.3584 0.367955C45.9015 1.57126 45.5429 2.55218 45.1551 3.52965C39.2282 18.0607 33.303 32.5935 27.3847 47.1263C26.6986 48.6606 26.5003 48.4985 25.3712 48.4985H21.113C19.9873 48.4985 19.9942 48.8002 19.0874 47.1383C13.2519 32.7831 7.39052 18.44 1.50672 4.1089C1.03436 2.91421 0.565451 1.76262 0 0.362784Z" fill="white"/>
<path d="M179.637 1.78674H188.779C193.943 1.78674 198.108 3.00212 201.273 5.43114C204.438 7.86017 206.022 11.0132 206.027 14.8921C206.027 18.7934 204.355 22.0671 201.009 24.7099C197.663 27.3544 192.588 28.6388 185.783 28.5646V47.2745H179.639V1.78674H179.637ZM185.778 7.20335V23.1394C190.45 23.098 193.908 22.4361 196.149 21.1569C198.392 19.8777 199.516 17.8366 199.523 15.0335C199.523 12.9148 198.673 11.0822 196.972 9.53584C195.27 7.98947 191.54 7.21542 185.778 7.21542V7.20335Z" fill="#5886C4"/>
<path d="M234.548 17.8176H240.76V47.2728H234.548V41.4287C231.525 45.8781 227.777 48.102 223.301 48.102C219.424 48.102 216.114 46.5798 213.371 43.5336C210.629 40.4891 209.255 36.7878 209.246 32.4297C209.201 28.4302 210.691 24.5634 213.408 21.6275C216.171 18.5382 219.422 16.9936 223.16 16.9936C225.484 16.9988 227.759 17.6539 229.728 18.8865C231.733 20.0829 233.392 21.781 234.543 23.8118L234.548 17.8142V17.8176ZM235.405 32.6331C235.443 30.0231 234.393 27.5165 232.507 25.7133C228.708 21.8947 222.534 21.8792 218.716 25.6788C218.71 25.684 218.705 25.6891 218.698 25.696C216.745 27.601 215.768 29.8386 215.768 32.409C215.718 35.0673 216.75 37.6326 218.629 39.5134C220.429 41.4287 222.955 42.4975 225.584 42.4527C230.988 42.4027 235.36 38.0394 235.421 32.6349H235.405V32.6331Z" fill="#5886C4"/>
<path d="M257.004 17.8176V23.8876C258.387 21.4586 259.737 19.7036 261.057 18.6227C262.378 17.5418 264.093 17.0005 266.205 16.997C267.076 17.0401 267.939 17.1832 268.777 17.4245L266.884 23.6376C266.108 23.4583 265.322 23.3394 264.528 23.279C262.547 23.2411 260.644 24.041 259.283 25.4822C257.866 26.9476 257.101 28.9232 257.159 30.9609V47.2779H250.934V17.8176H257.004Z" fill="#5886C4"/>
<path d="M277.89 9.24792H284.103V17.8176H290.244V23.4928H284.103V47.2642H277.89V23.4928H273.001V17.7452H277.89V9.24792Z" fill="#5886C4"/>
<path d="M294.562 47.2728V17.8177H300.632V22.7067C302.42 20.7328 304.038 19.2882 305.488 18.371C306.94 17.4539 308.628 16.9764 310.345 16.9953C312.882 16.9471 315.335 17.8952 317.182 19.6364C319.006 21.2431 320.04 23.5618 320.019 25.9908V47.2711H313.808V27.8113C313.853 26.3322 313.286 24.8996 312.243 23.848C311.203 22.7981 309.774 22.2292 308.298 22.2775C306.228 22.2775 304.444 23.1515 302.942 24.9013C301.437 26.6649 300.637 28.9215 300.694 31.2385V47.2711H294.562V47.2728Z" fill="#5886C4"/>
<path d="M357.15 33.7416H332.016C332.565 36.7619 333.808 38.9686 335.747 40.3615C337.581 41.7182 339.802 42.4492 342.084 42.4492C345.604 42.4492 348.556 40.9856 350.937 38.0566L355.471 41.4838C352.061 45.8971 347.503 48.0985 341.798 48.0882C337.417 48.0882 333.751 46.5884 330.799 43.5904C327.848 40.5908 326.377 36.8688 326.384 32.421C326.384 28.256 327.877 24.6461 330.865 21.5878C333.706 18.5899 337.678 16.9246 341.808 16.9987C346.046 16.9987 349.675 18.552 352.698 21.6568C355.722 24.7616 357.205 28.7904 357.148 33.7416H357.15ZM332.656 28.7922H350.652C348.645 24.7478 345.694 22.7256 341.796 22.7222C337.54 22.7118 334.492 24.7357 332.654 28.7922H332.656Z" fill="#5886C4"/>
<path d="M371.219 17.8176V23.8876C372.6 21.4586 373.949 19.7036 375.272 18.6227C376.594 17.5418 378.313 17.0005 380.43 16.997C381.3 17.0401 382.162 17.1832 383 17.4245L381.111 23.6376C380.335 23.4583 379.549 23.3394 378.754 23.279C376.766 23.2342 374.853 24.0307 373.486 25.4753C372.069 26.9407 371.303 28.9163 371.362 30.954V47.2711H365.15V17.8176H371.22H371.219Z" fill="#5886C4"/>
</svg>
