<svg width="311" height="90" viewBox="0 0 311 90" fill="none" xmlns="http://www.w3.org/2000/svg">
<path d="M2.07515 37.3021C-0.691718 42.0656 -0.691718 47.9344 2.07515 52.6979L19.2704 82.3021C22.0373 87.0656 27.1507 90 32.6843 90H67.0748C72.6087 90 77.7218 87.0656 80.4888 82.3021L84.826 74.8348C85.1711 74.2408 85.8039 73.8697 86.4938 73.8567L95.5671 73.6875C97.5113 73.6513 98.7187 71.5725 97.7782 69.8809L93.389 61.9857C93.0553 61.3853 93.0622 60.6551 93.4073 60.0611L97.6841 52.6979C100.451 47.9344 100.451 42.0656 97.6841 37.3021L80.4888 7.69801C77.7218 2.93447 72.6087 1.8502e-06 67.0748 1.19661e-07L32.6843 0C27.1507 -6.59921e-07 22.0373 2.93447 19.2704 7.69799L2.07515 37.3021Z" fill="#377DFF"/>
<path d="M27.1958 29.5091C27.1958 26.3204 29.7964 23.7356 33.0042 23.7356C36.212 23.7356 38.8126 26.3204 38.8126 29.5091C38.8126 32.6976 36.212 35.2826 33.0042 35.2826C29.7964 35.2826 27.1958 32.6976 27.1958 29.5091Z" fill="#F7F7F7"/>
<path d="M27.1958 46.1881C27.1958 42.9995 29.7964 40.4146 33.0042 40.4146C36.212 40.4146 38.8126 42.9995 38.8126 46.1881V62.867C38.8126 66.0557 36.212 68.6405 33.0042 68.6405C29.7964 68.6405 27.1958 66.0557 27.1958 62.867V46.1881Z" fill="#F7F7F7"/>
<path d="M43.9756 29.5091C43.9756 26.3204 46.5762 23.7356 49.784 23.7356C52.992 23.7356 55.5924 26.3204 55.5924 29.5091C55.5924 32.6976 52.992 35.2826 49.784 35.2826C46.5762 35.2826 43.9756 32.6976 43.9756 29.5091Z" fill="#F7F7F7"/>
<path d="M43.9756 46.1881C43.9756 42.9995 46.5762 40.4146 49.784 40.4146C52.992 40.4146 55.5924 42.9995 55.5924 46.1881C55.5924 49.3766 52.992 51.9616 49.784 51.9616C46.5762 51.9616 43.9756 49.3766 43.9756 46.1881Z" fill="#F7F7F7"/>
<path d="M43.9756 62.867C43.9756 59.6785 46.5762 57.0935 49.784 57.0935C52.992 57.0935 55.5924 59.6785 55.5924 62.867C55.5924 66.0557 52.992 68.6405 49.784 68.6405C46.5762 68.6405 43.9756 66.0557 43.9756 62.867Z" fill="#F7F7F7"/>
<path d="M60.7554 29.5091C60.7554 26.3204 63.356 23.7356 66.564 23.7356C69.7718 23.7356 72.3724 26.3204 72.3724 29.5091C72.3724 32.6976 69.7718 35.2826 66.564 35.2826C63.356 35.2826 60.7554 32.6976 60.7554 29.5091Z" fill="#F7F7F7"/>
<path d="M141.858 13.2278C141.309 13.2278 140.819 13.5737 140.639 14.0897L135.103 29.9264C134.903 30.4981 134.09 30.5018 133.885 29.9317L128.182 14.0788C127.999 13.5684 127.512 13.2278 126.967 13.2278H123.514C122.606 13.2278 121.982 14.1357 122.312 14.977L131.524 38.4558C131.717 38.9485 132.194 39.2727 132.726 39.2727H136.305C136.842 39.2727 137.323 38.9428 137.513 38.4439L146.455 14.965C146.775 14.1257 146.151 13.2278 145.248 13.2278H141.858Z" fill="white"/>
<path d="M150.941 15.219C150.941 15.9275 151.519 16.502 152.232 16.502H155.078C155.791 16.502 156.369 15.9275 156.369 15.219V12.762C156.369 12.0534 155.791 11.479 155.078 11.479H152.232C151.519 11.479 150.941 12.0534 150.941 12.762V15.219ZM150.941 37.9898C150.941 38.6982 151.519 39.2726 152.232 39.2726H155.115C155.828 39.2726 156.406 38.6982 156.406 37.9898V20.4638C156.406 19.7554 155.828 19.1809 155.115 19.1809H152.232C151.519 19.1809 150.941 19.7554 150.941 20.4638V37.9898Z" fill="white"/>
<path d="M173.405 18.6228C171.771 18.6228 170.25 18.9849 168.932 19.656C168.465 19.8934 167.866 19.578 167.866 19.0576V13.2458C167.866 12.5372 167.288 11.9628 166.575 11.9628H163.691C162.978 11.9628 162.4 12.5372 162.4 13.2458V38.027C162.4 38.7355 162.978 39.3099 163.691 39.3099H165.525C166.056 39.3099 166.533 38.9863 166.727 38.4944L166.746 38.4443C166.909 38.0317 167.434 37.903 167.798 38.1587C169.364 39.2584 171.273 39.8681 173.405 39.8681C179.544 39.8681 184.036 35.3288 184.036 29.2641C184.036 23.1621 179.544 18.6228 173.405 18.6228ZM172.956 34.7334C169.774 34.7334 167.454 32.3523 167.454 29.2268C167.454 26.1014 169.774 23.7201 172.956 23.7201C176.138 23.7201 178.459 26.1014 178.459 29.2268C178.459 32.3523 176.138 34.7334 172.956 34.7334Z" fill="white"/>
<path d="M188.701 37.9898C188.701 38.6983 189.279 39.2727 189.992 39.2727H192.875C193.588 39.2727 194.166 38.6983 194.166 37.9898V13.2458C194.166 12.5372 193.588 11.9628 192.875 11.9628H189.992C189.279 11.9628 188.701 12.5372 188.701 13.2458V37.9898Z" fill="white"/>
<path d="M209.742 39.8681C215.993 39.8681 220.672 35.2916 220.672 29.2267C220.672 23.1621 215.993 18.6228 209.742 18.6228C203.49 18.6228 198.812 23.1621 198.812 29.2267C198.812 35.2916 203.49 39.8681 209.742 39.8681ZM209.742 34.7334C206.598 34.7334 204.352 32.501 204.352 29.2267C204.352 25.9899 206.598 23.7201 209.742 23.7201C212.887 23.7201 215.133 25.9899 215.133 29.2267C215.133 32.501 212.887 34.7334 209.742 34.7334Z" fill="white"/>
<path d="M122.222 76.6427C122.222 77.3513 122.8 77.9258 123.513 77.9258H126.584C127.297 77.9258 127.874 77.3513 127.874 76.6427V53.1638C127.874 52.4552 127.297 51.8807 126.584 51.8807H123.513C122.8 51.8807 122.222 52.4552 122.222 53.1638V76.6427Z" fill="white"/>
<path d="M145.53 57.3873C143.199 57.3873 141.086 58.2265 139.563 59.5818C139.204 59.9005 138.61 59.8054 138.425 59.3644L138.113 58.6221C137.912 58.1447 137.442 57.8338 136.922 57.8338H135.329C134.616 57.8338 134.038 58.4082 134.038 59.1169V76.6426C134.038 77.3513 134.616 77.9257 135.329 77.9257H138.213C138.925 77.9257 139.503 77.3513 139.503 76.6426V67.3961C139.503 64.159 141.225 62.1499 144.033 62.1499C146.391 62.1499 147.551 63.6009 147.551 66.6519V76.6426C147.551 77.3513 148.129 77.9257 148.842 77.9257H151.726C152.438 77.9257 153.016 77.3513 153.016 76.6426V65.7589C153.016 60.6616 150.134 57.3873 145.53 57.3873Z" fill="white"/>
<path d="M168.503 73.0888C166.481 73.0888 165.358 71.9727 165.358 70.0378V62.8658C165.358 62.5115 165.647 62.2243 166.004 62.2243H169.57C170.283 62.2243 170.861 61.6498 170.861 60.9414V59.1169C170.861 58.4083 170.283 57.8338 169.57 57.8338H166.574C165.861 57.8338 165.283 57.2594 165.283 56.551V53.3526C165.283 52.9508 164.956 52.625 164.551 52.625C164.35 52.625 164.157 52.7076 164.019 52.8535L156.496 60.7874C156.346 60.9457 156.262 61.1547 156.262 61.372C156.262 61.8428 156.646 62.2243 157.12 62.2243H159.248C159.604 62.2243 159.893 62.5115 159.893 62.8658V70.7819C159.893 75.2095 162.626 77.9258 167.08 77.9258H169.682C170.395 77.9258 170.973 77.3513 170.973 76.6427V74.3717C170.973 73.6633 170.395 73.0888 169.682 73.0888H168.503Z" fill="white"/>
<path d="M194.885 67.8425C194.885 62.0381 190.618 57.2758 184.404 57.2758C178.415 57.2758 173.923 61.8523 173.923 67.8797C173.923 73.9072 178.452 78.5208 184.404 78.5208C188.815 78.5208 192.474 76.0797 194.123 72.1713C194.293 71.7681 193.982 71.34 193.543 71.34H189.085C188.853 71.34 188.641 71.4668 188.51 71.6583C187.646 72.9205 186.169 73.6839 184.404 73.6839C181.996 73.6839 180.295 72.4322 179.635 70.1497C179.524 69.7664 179.83 69.4052 180.231 69.4052H194.213C194.534 69.4052 194.808 69.1706 194.838 68.8527C194.869 68.516 194.885 68.1793 194.885 67.8425ZM184.404 61.9266C186.584 61.9266 188.211 62.9698 189.103 64.9031C189.285 65.2977 188.974 65.7217 188.537 65.7217H180.452C180.028 65.7217 179.718 65.3206 179.878 64.9306C180.659 63.0307 182.254 61.9266 184.404 61.9266Z" fill="white"/>
<path d="M209.854 57.7223C207.669 57.7223 206.055 58.292 204.735 59.518C204.372 59.8537 203.756 59.7561 203.577 59.2971L203.325 58.6526C203.132 58.1592 202.654 57.8338 202.121 57.8338H200.816C200.101 57.8338 199.524 58.4082 199.524 59.1169V76.6426C199.524 77.3513 200.101 77.9257 200.816 77.9257H203.697C204.412 77.9257 204.989 77.3513 204.989 76.6426V67.5076C204.989 64.2334 206.187 62.8568 209.256 62.8568H210.36C211.075 62.8568 211.651 62.2824 211.651 61.5739V59.0052C211.651 58.2967 211.075 57.7223 210.36 57.7223H209.854Z" fill="white"/>
<path d="M229.675 57.8339C229.13 57.8339 228.644 58.1737 228.459 58.6834L224.503 69.6344C224.3 70.1993 223.497 70.2012 223.29 69.6374L219.269 58.6773C219.084 58.171 218.599 57.8339 218.056 57.8339H215.039C214.123 57.8339 213.497 58.7571 213.844 59.601L221.028 77.1267C221.225 77.6098 221.698 77.9258 222.223 77.9258H225.532C226.061 77.9258 226.536 77.6045 226.731 77.1154L233.718 59.5896C234.055 58.7474 233.431 57.8339 232.52 57.8339H229.675Z" fill="white"/>
<path d="M238.124 53.872C238.124 54.5805 238.702 55.1549 239.415 55.1549H242.261C242.974 55.1549 243.552 54.5805 243.552 53.872V51.415C243.552 50.7064 242.974 50.132 242.261 50.132H239.415C238.702 50.132 238.124 50.7064 238.124 51.415V53.872ZM238.124 76.6426C238.124 77.3513 238.702 77.9257 239.415 77.9257H242.298C243.011 77.9257 243.59 77.3513 243.59 76.6426V59.1169C243.59 58.4082 243.011 57.8338 242.298 57.8338H239.415C238.702 57.8338 238.124 58.4082 238.124 59.1169V76.6426Z" fill="white"/>
<path d="M269.198 67.8425C269.198 62.0381 264.93 57.2758 258.716 57.2758C252.727 57.2758 248.235 61.8523 248.235 67.8797C248.235 73.9072 252.764 78.5208 258.716 78.5208C263.127 78.5208 266.787 76.0797 268.436 72.1713C268.605 71.7681 268.294 71.34 267.855 71.34H263.397C263.165 71.34 262.954 71.4668 262.822 71.6583C261.958 72.9205 260.482 73.6839 258.716 73.6839C256.309 73.6839 254.608 72.4322 253.947 70.1497C253.837 69.7664 254.144 69.4052 254.543 69.4052H268.525C268.847 69.4052 269.121 69.1706 269.151 68.8527C269.182 68.516 269.198 68.1793 269.198 67.8425ZM258.716 61.9266C260.897 61.9266 262.523 62.9698 263.415 64.9031C263.598 65.2977 263.287 65.7217 262.85 65.7217H254.764C254.341 65.7217 254.03 65.3206 254.191 64.9306C254.973 63.0307 256.567 61.9266 258.716 61.9266Z" fill="white"/>
<path d="M297.802 57.8339C297.245 57.8339 296.751 58.1901 296.576 58.7168L293.415 68.295C293.231 68.8495 292.458 68.8925 292.214 68.3619L287.752 58.6709C287.559 58.2516 287.137 57.9828 286.673 57.9828C286.203 57.9828 285.777 58.2588 285.588 58.6863L281.335 68.2907C281.097 68.8281 280.317 68.7918 280.132 68.2345L276.947 58.7123C276.772 58.1878 276.28 57.8339 275.723 57.8339H272.898C272.021 57.8339 271.399 58.6887 271.672 59.5186L277.485 77.0444C277.66 77.5703 278.154 77.9258 278.711 77.9258H281.345C281.86 77.9258 282.327 77.6206 282.53 77.1496L286.098 68.9039C286.321 68.3881 287.057 68.386 287.283 68.9001L290.915 77.1567C291.119 77.6239 291.584 77.9258 292.098 77.9258H294.733C295.292 77.9258 295.786 77.5683 295.96 77.0403L301.707 59.5145C301.979 58.6853 301.357 57.8339 300.479 57.8339H297.802Z" fill="white"/>
<path d="M304.038 75.0234C304.038 76.6161 305.337 77.9258 306.939 77.9258C308.542 77.9258 309.841 76.6161 309.841 75.0234C309.841 73.431 308.542 72.1213 306.939 72.1213C305.337 72.1213 304.038 73.431 304.038 75.0234Z" fill="white"/>
<path d="M27.1958 46.1881C27.1958 42.9995 29.7964 40.4146 33.0042 40.4146C36.212 40.4146 38.8126 42.9995 38.8126 46.1881V62.867C38.8126 66.0557 36.212 68.6405 33.0042 68.6405C29.7964 68.6405 27.1958 66.0557 27.1958 62.867V46.1881Z" fill="#F7F7F7"/>
</svg>
