<svg xmlns="http://www.w3.org/2000/svg" viewBox="0 0 321.74 107.65"><defs><style>.cls-1{fill:#fff;}</style></defs><title>Layer 1</title><g id="Layer_2" data-name="Layer 2"><g id="Layer_1-2" data-name="Layer 1"><rect class="cls-1" x="91.28" y="0.71" width="12.24" height="88.28"/><path class="cls-1" d="M161.8,41.65a25.39,25.39,0,0,0,5-5.88,20.75,20.75,0,0,0,2.71-10.65,24.33,24.33,0,0,0-1.87-9.43A22.33,22.33,0,0,0,156.07,3.84,38.1,38.1,0,0,0,139.94.71H116.81V89H142a59.8,59.8,0,0,0,11.05-.81A30.62,30.62,0,0,0,163.63,84h0c7.06-4.44,10.63-11.54,10.63-21.11C174.26,53.12,170.07,46,161.8,41.65ZM151.38,35a18.64,18.64,0,0,1-6.46,1.86,30.8,30.8,0,0,1-3.43.26l-12.44,0v-25h9.38c1.7,0,3.2,0,4.41.11a29.29,29.29,0,0,1,4.37.68,12.59,12.59,0,0,1,7,3.8h0a11.7,11.7,0,0,1,3,8C157.23,29.57,155.31,32.91,151.38,35ZM129.05,48.57h12.62c1.52,0,2.88.11,4.07.22a27.07,27.07,0,0,1,7.54,1.6c5.88,2.42,8.74,6.51,8.74,12.52,0,6.33-2.54,10.46-7.78,12.66A24.43,24.43,0,0,1,147,77.31l-4,.22-14,0Z"/><polygon class="cls-1" points="195.45 0.71 183.21 0.71 183.21 88.99 230.35 88.99 230.35 77.59 195.45 77.59 195.45 0.71"/><path class="cls-1" d="M308.11,13.12a46.21,46.21,0,0,0-64.36.13,43.49,43.49,0,0,0-13.4,32c0,12.17,4.62,22.76,13.75,31.46a46,46,0,0,0,64-.12,42.69,42.69,0,0,0,13.69-31.78A42.63,42.63,0,0,0,308.11,13.12ZM276,78.25a32.6,32.6,0,0,1-23.5-9.72,31.46,31.46,0,0,1-10-23.24,33,33,0,0,1,9.76-23.87,32.22,32.22,0,0,1,23.74-10,32.6,32.6,0,0,1,23.7,9.86A32.34,32.34,0,0,1,309.6,45a31.85,31.85,0,0,1-10,23.52A32.68,32.68,0,0,1,276,78.25Z"/><polygon class="cls-1" points="36.74 88.28 49.78 88.28 86.36 0.08 73.25 0 53.4 47.86 32.89 47.86 13.1 0 0 0 36.74 88.28"/><rect class="cls-1" x="5.24" y="96.58" width="75.88" height="11.07"/></g></g></svg>